<svg
  width="18"
  height="19"
  viewBox="0 0 18 19"
  fill="none"
  xmlns="http://www.w3.org/2000/svg"
>
<path
    d="M3.62304 8.793C5.06402 11.624 7.37904 13.938 10.212 15.378L12.412 13.175C12.687 12.9 13.082 12.819 13.428 12.93C14.552 13.297 15.753 13.498 17 13.498C17.552 13.498 18 13.945 18 14.498V17.998C18 18.551 17.552 18.998 17 18.998C7.61104 18.998 -0.000976562 11.387 -0.000976562 1.99796C-0.000976562 1.44497 0.447023 0.997955 0.999023 0.997955H4.49902C5.05203 0.997955 5.49902 1.44497 5.49902 1.99796C5.49902 3.24497 5.70004 4.44597 6.06704 5.56997C6.17904 5.91596 6.09704 6.31096 5.82302 6.58497L3.62304 8.793Z"
    fill="#FEB93E"
  />
</svg>
