<svg width="24" height="23" viewBox="0 0 24 23" fill="none" xmlns="http://www.w3.org/2000/svg">
<path d="M6.68004 1.86359L4.95888 0.176923C2.07021 2.33538 0.168506 5.66154 0 9.4359H2.40722C2.58776 6.31026 4.22467 3.57385 6.68004 1.86359ZM21.5928 9.4359H24C23.8195 5.66154 21.9178 2.33538 19.0411 0.176923L17.332 1.86359C19.7633 3.57385 21.4122 6.31026 21.5928 9.4359ZM19.2217 10.0256C19.2217 6.40462 17.2477 3.37333 13.8054 2.57128V1.76923C13.8054 0.790256 12.999 0 12 0C11.001 0 10.1946 0.790256 10.1946 1.76923V2.57128C6.74022 3.37333 4.77834 6.39282 4.77834 10.0256V15.9231L2.37111 18.2821V19.4615H21.6289V18.2821L19.2217 15.9231V10.0256ZM12 23C12.1685 23 12.325 22.9882 12.4814 22.9528C13.2638 22.7877 13.9017 22.2687 14.2146 21.561C14.335 21.278 14.3952 20.9713 14.3952 20.641H9.58074C9.59278 21.9385 10.664 23 12 23Z" fill="white"/>
</svg>
