<svg
  width="16"
  height="14"
  viewBox="0 0 16 14"
  fill="none"
  xmlns="http://www.w3.org/2000/svg"
>
<path
    d="M0 1.66667C0 0.746192 0.762069 0 1.70213 0H9.87234V3H0V1.66667Z"
    fill="#FEB93E"
  />
<path
    fill-rule="evenodd"
    clip-rule="evenodd"
    d="M0 4.33333H16V12.3333C16 13.2538 15.2379 14 14.2979 14H1.70213C0.762068 14 0 13.2538 0 12.3333V4.33333ZM2.04255 7.66667C2.04255 7.29848 2.34738 7 2.7234 7H12.5957C12.9718 7 13.2766 7.29848 13.2766 7.66667C13.2766 8.03486 12.9718 8.33333 12.5957 8.33333H2.7234C2.34738 8.33333 2.04255 8.03486 2.04255 7.66667ZM2.7234 9.66667C2.34738 9.66667 2.04255 9.96514 2.04255 10.3333C2.04255 10.7015 2.34738 11 2.7234 11H10.5532C10.9292 11 11.234 10.7015 11.234 10.3333C11.234 9.96514 10.9292 9.66667 10.5532 9.66667H2.7234Z"
    fill="#FEB93E"
  />
</svg>
