<svg width="19" height="13" viewBox="0 0 19 13" fill="none" xmlns="http://www.w3.org/2000/svg">
<path d="M16.25 0H1.95C1.43283 0 0.936838 0.205446 0.571142 0.571142C0.205446 0.936838 0 1.43283 0 1.95V8.45C0 8.96717 0.205446 9.46316 0.571142 9.82886C0.936838 10.1946 1.43283 10.4 1.95 10.4H16.25C16.7672 10.4 17.2632 10.1946 17.6289 9.82886C17.9946 9.46316 18.2 8.96717 18.2 8.45V1.95C18.2 1.43283 17.9946 0.936838 17.6289 0.571142C17.2632 0.205446 16.7672 0 16.25 0ZM3.25 3.25H2.6C2.42761 3.25 2.26228 3.18152 2.14038 3.05962C2.01848 2.93772 1.95 2.77239 1.95 2.6C1.95 2.42761 2.01848 2.26228 2.14038 2.14038C2.26228 2.01848 2.42761 1.95 2.6 1.95H3.25C3.42239 1.95 3.58772 2.01848 3.70962 2.14038C3.83152 2.26228 3.9 2.42761 3.9 2.6C3.9 2.77239 3.83152 2.93772 3.70962 3.05962C3.58772 3.18152 3.42239 3.25 3.25 3.25ZM9.1 8.45C8.45721 8.45 7.82886 8.25939 7.2944 7.90228C6.75994 7.54516 6.34338 7.03758 6.09739 6.44372C5.85141 5.84986 5.78705 5.19639 5.91245 4.56596C6.03785 3.93552 6.34738 3.35642 6.8019 2.9019C7.25642 2.44738 7.83552 2.13785 8.46596 2.01245C9.09639 1.88705 9.74986 1.95141 10.3437 2.19739C10.9376 2.44338 11.4452 2.85994 11.8023 3.3944C12.1594 3.92886 12.35 4.55721 12.35 5.2C12.35 6.06195 12.0076 6.8886 11.3981 7.4981C10.7886 8.10759 9.96195 8.45 9.1 8.45ZM15.6 8.45H14.95C14.7776 8.45 14.6123 8.38152 14.4904 8.25962C14.3685 8.13772 14.3 7.97239 14.3 7.8C14.3 7.62761 14.3685 7.46228 14.4904 7.34038C14.6123 7.21848 14.7776 7.15 14.95 7.15H15.6C15.7724 7.15 15.9377 7.21848 16.0596 7.34038C16.1815 7.46228 16.25 7.62761 16.25 7.8C16.25 7.97239 16.1815 8.13772 16.0596 8.25962C15.9377 8.38152 15.7724 8.45 15.6 8.45Z" fill="white"/>
<path d="M9.1 7.15C10.177 7.15 11.05 6.27696 11.05 5.2C11.05 4.12304 10.177 3.25 9.1 3.25C8.02304 3.25 7.15 4.12304 7.15 5.2C7.15 6.27696 8.02304 7.15 9.1 7.15Z" fill="white"/>
<path d="M14.95 11.7H3.25C3.07761 11.7 2.91228 11.7685 2.79038 11.8904C2.66848 12.0123 2.6 12.1776 2.6 12.35C2.6 12.5224 2.66848 12.6877 2.79038 12.8096C2.91228 12.9315 3.07761 13 3.25 13H14.95C15.1224 13 15.2877 12.9315 15.4096 12.8096C15.5315 12.6877 15.6 12.5224 15.6 12.35C15.6 12.1776 15.5315 12.0123 15.4096 11.8904C15.2877 11.7685 15.1224 11.7 14.95 11.7Z" fill="white"/>
</svg>
