<svg width="27" height="27" viewBox="0 0 27 27" fill="none" xmlns="http://www.w3.org/2000/svg">
<path d="M17.943 5.66666H25.4016C26.1323 5.66666 26.7243 6.25999 26.7243 6.99999V25.6667C26.7243 26.4027 26.1176 27 25.4016 27H1.38031C1.20581 26.9996 1.0331 26.9648 0.87209 26.8976C0.711078 26.8303 0.564933 26.7319 0.442042 26.608C0.319151 26.4842 0.221934 26.3372 0.155968 26.1757C0.0900025 26.0141 0.0565877 25.8412 0.0576414 25.6667V6.99999C0.0576414 6.26399 0.664308 5.66666 1.38031 5.66666H8.83898L5.45764 2.28533L7.34298 0.399994L12.6096 5.66666H14.1723L19.439 0.399994L21.3243 2.28533L17.943 5.66666Z" fill="#03293D"/>
</svg>
