<svg width="17" height="15" viewBox="0 0 17 15" fill="none" xmlns="http://www.w3.org/2000/svg">
<path d="M16.4173 5.91667V13.8333C16.4173 14.0433 16.3339 14.2447 16.1854 14.3931C16.037 14.5416 15.8356 14.625 15.6257 14.625H1.37565C1.16569 14.625 0.964324 14.5416 0.815858 14.3931C0.667392 14.2447 0.583984 14.0433 0.583984 13.8333V5.91667H16.4173ZM16.4173 4.33333H0.583984V1.16667C0.583984 0.956704 0.667392 0.75534 0.815858 0.606874C0.964324 0.458407 1.16569 0.375 1.37565 0.375H15.6257C15.8356 0.375 16.037 0.458407 16.1854 0.606874C16.3339 0.75534 16.4173 0.956704 16.4173 1.16667V4.33333ZM10.8757 10.6667V12.25H14.0423V10.6667H10.8757Z" fill="white"/>
</svg>
