<svg width="24" height="19" viewBox="0 0 24 19" fill="none" xmlns="http://www.w3.org/2000/svg">
<path fill-rule="evenodd" clip-rule="evenodd" d="M23.9999 13.0932C23.9955 13.403 23.8694 13.6988 23.6482 13.9178L18.8656 18.652C18.7539 18.7625 18.6215 18.85 18.4757 18.9097C18.33 18.9694 18.1738 19.0001 18.016 19C17.6975 18.9998 17.3921 18.8742 17.167 18.6509C16.9419 18.4275 16.8156 18.1247 16.8158 17.8091C16.816 17.4935 16.9428 17.1909 17.1682 16.9679L19.8854 14.2779L10.803 14.2779C10.6439 14.2801 10.486 14.251 10.3384 14.1922C10.1908 14.1335 10.0565 14.0462 9.94317 13.9356C9.8299 13.8249 9.73995 13.693 9.67855 13.5476C9.61715 13.4022 9.58554 13.2462 9.58554 13.0885C9.58554 12.9309 9.61715 12.7749 9.67855 12.6295C9.73995 12.4841 9.8299 12.3522 9.94317 12.2415C10.0565 12.1309 10.1908 12.0436 10.3384 11.9848C10.486 11.9261 10.6439 11.897 10.803 11.8992L19.9088 11.8992L17.1682 9.18598C17.0566 9.07555 16.968 8.94442 16.9075 8.80007C16.8471 8.65573 16.8159 8.501 16.8158 8.34472C16.8157 8.18844 16.8466 8.03367 16.9069 7.88925C16.9672 7.74482 17.0555 7.61357 17.167 7.50299C17.2784 7.39241 17.4108 7.30466 17.5565 7.24475C17.7021 7.18485 17.8583 7.15396 18.016 7.15385C18.1738 7.15374 18.33 7.18442 18.4757 7.24412C18.6215 7.30383 18.7539 7.3914 18.8656 7.50183L23.6482 12.236C23.7617 12.3484 23.8512 12.4821 23.9116 12.6293C23.972 12.7766 24.002 12.9343 23.9999 13.0932ZM14.4205 5.971C14.4155 6.28603 14.2846 6.58624 14.0565 6.80574C13.8284 7.02523 13.5217 7.14609 13.2037 7.14177L4.08849 7.14177L6.83853 9.86891C6.9538 9.98002 7.04537 10.1129 7.10779 10.2598C7.17021 10.4066 7.20223 10.5644 7.20192 10.7238C7.20139 10.9602 7.12978 11.1911 6.99623 11.387C6.86268 11.5829 6.67324 11.7349 6.45209 11.8236C6.23095 11.9124 5.98813 11.9338 5.75464 11.8852C5.52114 11.8366 5.30756 11.7202 5.14115 11.5507L0.351441 6.8003C0.126412 6.57724 -1.35111e-06 6.27477 -1.33733e-06 5.95938C-1.32354e-06 5.644 0.126412 5.34152 0.351441 5.11847L5.14115 0.365699C5.25176 0.251548 5.38424 0.160413 5.53084 0.0976287C5.67743 0.0348465 5.8352 0.00167577 5.9949 6.21555e-05C6.1546 -0.00154955 6.31302 0.0284283 6.46088 0.0882408C6.60874 0.148051 6.74307 0.236493 6.856 0.348388C6.96893 0.460283 7.05819 0.593381 7.11855 0.739885C7.17892 0.886388 7.20917 1.04336 7.20755 1.20159C7.20592 1.35982 7.17244 1.51615 7.10908 1.6614C7.04572 1.80666 6.95374 1.93793 6.83853 2.04752L4.10256 4.76306L13.2037 4.76306C13.3643 4.76088 13.5237 4.79066 13.6725 4.85062C13.8212 4.91058 13.9564 4.99951 14.0698 5.11215C14.1833 5.22478 14.2728 5.35883 14.333 5.50636C14.3932 5.65388 14.423 5.81188 14.4205 5.971Z" fill="white"/>
</svg>
