<svg width="18" height="18" viewBox="0 0 18 18" fill="none" xmlns="http://www.w3.org/2000/svg">
<path d="M8.99935 17.3333L5.66602 14H12.3327L8.99935 17.3333ZM8.99935 0.666626L12.3327 3.99996H5.66602L8.99935 0.666626ZM8.99935 10.6666C8.55732 10.6666 8.1334 10.491 7.82084 10.1785C7.50828 9.86591 7.33268 9.44199 7.33268 8.99996C7.33268 8.55793 7.50828 8.13401 7.82084 7.82145C8.1334 7.50889 8.55732 7.33329 8.99935 7.33329C9.44138 7.33329 9.8653 7.50889 10.1779 7.82145C10.4904 8.13401 10.666 8.55793 10.666 8.99996C10.666 9.44199 10.4904 9.86591 10.1779 10.1785C9.8653 10.491 9.44138 10.6666 8.99935 10.6666ZM0.666016 8.99996L3.99935 5.66663V12.3333L0.666016 8.99996ZM17.3327 8.99996L13.9993 12.3333V5.66663L17.3327 8.99996Z" fill="black"/>
</svg>
