<svg
  width="17"
  height="17"
  viewBox="0 0 17 17"
  fill="none"
  xmlns="http://www.w3.org/2000/svg"
>
<path
    d="M16.15 9.35H15.8007C15.7114 9.129 15.606 8.9165 15.4853 8.71335L16.1245 6.1557C16.2069 5.82505 16.0845 5.47655 15.8117 5.27085C15.5397 5.06685 15.1708 5.0422 14.875 5.2139L12.6633 6.4906C11.186 6.0724 8.0189 5.95 7.65 5.95C4.8552 5.95 2.51175 7.61175 1.87595 9.8413C1.7731 9.70105 1.7 9.53785 1.7 9.35C1.7 8.87995 1.3192 8.5 0.85 8.5C0.3808 8.5 0 8.87995 0 9.35C0 10.4822 0.7463 11.4333 1.7697 11.7648C1.9159 12.6557 2.3222 13.4946 2.97585 14.2044L2.57125 15.9587C2.51345 16.2112 2.57295 16.4755 2.73445 16.6796C2.89595 16.8818 3.14075 17 3.4 17H5.95C6.32315 17 6.6538 16.7561 6.7626 16.399L6.85355 16.1024C7.1196 16.1339 7.38565 16.15 7.65 16.15C8.16935 16.15 9.2395 16.0931 10.115 15.98L10.234 16.3871C10.3394 16.7501 10.6726 17 11.05 17H13.6C13.8601 17 14.1058 16.8802 14.2673 16.677C14.4288 16.473 14.4874 16.2052 14.427 15.952L14.1083 14.6149C14.6251 14.3021 15.0314 13.9621 15.3246 13.6H16.15C16.6192 13.6 17 13.2201 17 12.75V10.2C17 9.72995 16.6192 9.35 16.15 9.35ZM11.9 11.05C11.43 11.05 11.05 10.6701 11.05 10.2C11.05 9.72995 11.43 9.35 11.9 9.35C12.3701 9.35 12.75 9.72995 12.75 10.2C12.75 10.6701 12.3701 11.05 11.9 11.05Z"
    fill="#FEB93E"
  />
<path
    d="M8.5 5.1C9.90833 5.1 11.05 3.95833 11.05 2.55C11.05 1.14167 9.90833 0 8.5 0C7.09167 0 5.95 1.14167 5.95 2.55C5.95 3.95833 7.09167 5.1 8.5 5.1Z"
    fill="#FEB93E"
  />
</svg>
