<svg width="99" height="81" viewBox="0 0 99 81" fill="none" xmlns="http://www.w3.org/2000/svg">
<path d="M8.91667 11.5208V4.80213C8.92483 3.63127 9.39326 2.51062 10.2208 1.68226C11.0483 0.853905 12.1685 0.384339 13.3393 0.375H93.6607C96.1038 0.375 98.0833 2.35896 98.0833 4.80213V76.1979C98.0752 77.3687 97.6067 78.4894 96.7792 79.3177C95.9517 80.1461 94.8315 80.6157 93.6607 80.625H13.3393C12.166 80.6238 11.041 80.1569 10.2118 79.3268C9.38248 78.4966 8.91667 77.3713 8.91667 76.1979V71.7083H89.1667V19.5458L53.5 51.6458L8.91667 11.5208ZM0 31.5833H22.2917V40.5H0V31.5833ZM0 53.875H35.6667V62.7917H0V53.875Z" fill="#00B394"/>
</svg>
