<svg width="240" height="162" viewBox="0 0 240 162" fill="none" xmlns="http://www.w3.org/2000/svg">
<path opacity="0.1" d="M9.19585 111.155C6.4034 99.8843 6.73045 88.1359 7.05749 76.5384C7.46 62.3246 8.01346 47.5573 14.6047 34.9535C22.6801 19.4818 38.9066 9.56985 55.7619 5.14217C72.6172 0.714497 90.3531 1.04154 107.787 1.39374C119.385 1.62016 130.982 1.87173 142.554 2.09815C148.24 2.22393 154.429 2.50066 158.756 6.19878C163.661 10.3749 164.567 17.4944 165.146 23.9095C166.227 35.9849 167.284 48.312 164.416 60.1107C160.466 76.3623 149.548 89.8717 138.907 102.803C129.12 114.702 119.334 126.601 109.548 138.501C104.491 144.639 99.3342 150.878 92.7179 155.331C68.0386 171.884 35.8625 154.928 20.0638 133.872C15.0072 127.104 11.2336 119.356 9.19585 111.155Z" fill="#0033A1"/>
<path d="M105.426 149.368C103.438 153.066 93.3504 151.884 79.3882 147.029C70.0045 143.758 58.885 138.853 47.2875 132.664C42.885 130.299 38.6838 127.909 34.7341 125.494C34.6586 125.444 34.6083 125.419 34.5328 125.368C34.5077 125.293 34.4825 125.192 34.4573 125.117C30.08 122.4 25.6272 119.28 21.4511 116.035C9.32526 106.676 -0.435745 96.5129 1.17432 93.5192C3.23721 89.6701 14.0548 91.1041 28.8473 96.4374C37.8787 99.6827 48.3945 104.387 59.2875 110.224C69.4259 115.658 78.558 121.343 86.0045 126.727C99.6649 136.588 107.564 145.343 105.426 149.368Z" fill="black" stroke="black" stroke-miterlimit="10"/>
<path d="M68.6719 67.5808V67.4565" stroke="black" stroke-miterlimit="10"/>
<path d="M68.6986 67.4565L68.6734 74.5006C68.5476 68.7647 65.252 67.5069 65.0508 67.4565C65.1766 67.4817 66.8118 67.683 68.6986 67.4565Z" fill="black" stroke="black" stroke-miterlimit="10" stroke-linecap="round" stroke-linejoin="round"/>
<path d="M72.8731 48.9656C78.131 53.3933 80.2945 59.3555 78.2065 59.8838C76.37 60.3366 75.2631 58.7266 74.936 58.1228C74.9109 58.0725 74.8605 58.0977 74.8605 58.148C75.6153 65.3681 71.7662 67.2297 68.6719 67.5819" stroke="black" stroke-width="2" stroke-miterlimit="10"/>
<path d="M56.3192 65.5696L53.6777 73.9469" stroke="black" stroke-width="2" stroke-miterlimit="10"/>
<path d="M86.2566 125.494C86.2063 125.796 86.1308 126.098 86.0805 126.374C86.0553 126.5 86.0302 126.601 86.005 126.727C84.8981 132.085 83.3384 136.991 81.7786 141.116C81.678 141.368 81.5774 141.645 81.5019 141.896C80.9736 143.28 80.4453 144.563 79.9421 145.745C79.8415 145.997 79.7409 146.223 79.6402 146.45C79.5648 146.651 79.4641 146.852 79.3887 147.054C77.7534 146.475 76.0679 145.871 74.3321 145.192C74.1057 145.116 73.8792 145.016 73.6528 144.94C65.6025 141.821 56.5962 137.67 47.3132 132.689C42.9107 130.324 38.7094 127.934 34.7597 125.519C34.6843 125.469 34.6339 125.444 34.5585 125.393C34.5333 125.318 34.5082 125.217 34.483 125.142C30.1056 122.425 25.8792 119.054 21.7031 115.833C23.2377 108.085 25.7031 101.846 28.8981 96.4624C30.9107 93.0661 33.1245 90.1228 35.3887 87.5567C36.7723 85.9718 38.1811 84.563 39.5648 83.28C39.7157 83.129 39.8666 82.9781 40.0427 82.8523C40.722 82.2485 41.3761 81.6699 42.0302 81.1416C42.2063 80.9907 42.3572 80.8649 42.5333 80.7391C42.7346 80.563 42.9358 80.4121 43.1622 80.236C43.4138 80.0347 43.6654 79.8586 43.8918 79.6573C44.0176 79.5567 44.1685 79.4561 44.2943 79.3555C44.4956 79.2045 44.6968 79.0536 44.8981 78.9026C44.9736 78.8523 45.049 78.802 45.1245 78.7517C45.527 78.4498 45.9295 78.1731 46.3069 77.9215C46.5082 77.7957 46.6843 77.6699 46.8604 77.5441C48.244 76.6133 49.4767 75.8838 50.5333 75.3051C50.7346 75.2045 50.9107 75.1039 51.1119 75.0033C52.8226 74.0724 53.8541 73.6699 53.8541 73.6699C53.8541 73.6699 55.6654 76.9152 58.4075 78.9781C58.6591 79.1542 58.9107 79.3303 59.1623 79.5064C60.722 80.4624 62.5082 80.9655 64.4201 80.3617C64.9233 80.2108 65.4264 79.9844 65.9295 79.6573C65.9799 79.6322 66.0302 79.607 66.0553 79.5567C67.7157 78.4498 68.7975 76.563 68.7975 74.5756C69.049 74.6762 69.1748 74.7768 69.4012 74.9026C69.9799 75.1794 70.5585 75.4812 71.0868 75.8334C71.3132 75.9592 71.5396 76.1102 71.7409 76.2611C82.5333 83.4058 86.2818 100.211 86.2818 100.211C86.5333 101.217 86.7346 102.223 86.9107 103.23C88.1937 110.676 87.6402 118.425 86.2566 125.494Z" fill="white" stroke="black" stroke-width="2" stroke-miterlimit="10"/>
<path d="M86.9823 102.677C86.8062 101.746 86.6301 100.815 86.4037 99.9097C86.3533 99.7084 81.4225 80.6392 69.0703 74.5009C69.2213 74.4254 69.3722 74.3248 69.5483 74.2241C71.3345 75.1549 79.5609 80.1361 84.4665 93.5449C85.02 95.0543 85.9257 96.3625 87.0829 97.3185C88.1898 98.2241 89.2967 98.7021 90.4037 98.7021C90.7055 98.7021 91.0074 98.6518 91.3093 98.5763L86.9823 102.677Z" fill="black"/>
<path d="M69.5242 74.4C71.3104 75.356 78.4551 79.7585 83.3356 91.1045C83.084 90.551 82.8073 89.9724 82.5054 89.3686C79.9897 84.3372 75.6878 77.746 69.3481 74.5007C69.3985 74.4755 69.4739 74.4252 69.5242 74.4ZM84.9205 94.9284C85.4488 95.9095 86.1532 96.7648 86.9834 97.4441C88.1154 98.3749 89.2727 98.8529 90.3796 98.8529C90.5305 98.8529 90.7066 98.8529 90.8576 98.8277L87.084 102.4C86.9331 101.545 86.757 100.715 86.5557 99.8843C86.5305 99.834 86.0022 97.8214 84.9205 94.9284ZM69.5242 74.073C69.2224 74.2491 68.9708 74.4 68.7695 74.5258C81.3985 80.5887 86.279 99.9346 86.279 99.9346C86.5305 100.941 86.7318 101.947 86.9079 102.954L91.8639 98.2491C91.3607 98.4755 90.8576 98.551 90.3796 98.551C89.1469 98.551 88.04 97.9472 87.1595 97.2177C85.9771 96.2365 85.1217 94.9535 84.5934 93.5196C79.562 79.8089 71.0337 74.878 69.5242 74.073Z" fill="black"/>
<path d="M90.3827 98.2746C89.4016 98.2746 88.3701 97.8469 87.3387 96.9916C86.2569 96.0859 85.4016 94.8532 84.8481 93.4193C80.4959 81.5702 72.999 76.262 69.5273 74.3752C70.2821 73.9727 71.2632 73.4696 72.3198 72.9413C73.628 72.2872 74.9865 71.5828 76.0934 70.979C85.8292 78.7023 92.8984 94.2746 93.7034 96.1111L91.6909 98.023C91.2632 98.1991 90.8104 98.2746 90.3827 98.2746Z" fill="white"/>
<path d="M76.0646 71.3059C85.4231 78.8028 92.2658 93.5701 93.3728 96.0355L91.5363 97.7714C91.1589 97.9223 90.7564 97.9978 90.379 97.9978C89.4482 97.9978 88.4923 97.5953 87.5111 96.7902C86.4545 95.9349 85.6243 94.7273 85.1212 93.3185C80.9199 81.872 73.7753 76.4883 70.1275 74.3751C70.8067 74.0229 71.6117 73.6204 72.4671 73.1927C73.6998 72.5386 74.9828 71.8846 76.0646 71.3059ZM76.1149 70.6519C73.8759 71.8594 70.53 73.4946 68.9199 74.3751C70.4294 75.155 79.5363 79.8091 84.5677 93.5198C85.096 94.9537 85.9514 96.2619 87.1338 97.2179C88.0143 97.9475 89.1212 98.5512 90.3539 98.5512C90.8319 98.5512 91.335 98.4506 91.8382 98.2493L94.0268 96.1613C94.052 96.1864 86.6809 78.9034 76.1149 70.6519Z" fill="black"/>
<path d="M98.5845 91.6327L95.943 94.1484L93.6285 96.2113C93.6285 96.2113 86.7857 79.7333 76.3203 70.878C78.2826 69.7962 80.2448 68.8654 81.3769 68.4629C81.3769 68.4629 86.4587 74.4503 91.1379 80.4629C93.8297 83.9346 96.3958 87.4314 97.7291 89.7459C98.1316 90.5258 98.4335 91.1799 98.5845 91.6327Z" fill="white" stroke="black" stroke-width="2" stroke-miterlimit="10"/>
<path d="M143.391 42.6261C147.215 39.4563 146.032 35.1293 144.8 32.5632C144.674 32.2865 144.246 32.4123 144.296 32.7142C144.473 34.1481 144.221 36.0601 142.435 37.9972C138.938 41.7708 130.661 44.3117 130.661 44.3117C124.322 46.1481 116.447 49.6198 108.875 53.3431C106.057 54.7267 103.265 56.1607 100.623 57.5695C89.8562 63.2802 81.3027 68.4626 81.3027 68.4626" stroke="black" stroke-width="2" stroke-miterlimit="10"/>
<path d="M147.714 39.5067C149.777 37.9721 156.192 35.3557 156.192 37.1419C156.192 38.8526 147.965 42.1985 147.21 42.5255C147.185 42.5255 147.16 42.5507 147.16 42.5507" stroke="black" stroke-width="2" stroke-miterlimit="10"/>
<path d="M147.163 42.5257C147.188 42.5257 147.213 42.5006 147.213 42.5006C155.113 39.7081 154.609 42.2993 153.754 42.9786C153.025 43.5572 146.408 45.0666 145.98 45.1421" stroke="black" stroke-width="2" stroke-miterlimit="10"/>
<path d="M145.979 45.1673C146.457 45.117 154.256 44.2365 152.092 45.8717C149.853 47.5572 142.13 47.4063 142.13 47.4063C133.979 49.2176 117.627 66.6013 107.187 78.5258C101.979 84.4629 98.2307 89.0667 97.7024 89.7459C97.6521 89.7962 97.627 89.8214 97.627 89.8214" stroke="black" stroke-width="2" stroke-miterlimit="10"/>
<path d="M145.98 40.6137C145.98 40.6137 151.968 37.0162 152.547 35.0036C153.125 32.991 145.98 36.9407 145.98 36.9407" stroke="black" stroke-width="2" stroke-miterlimit="10"/>
<path d="M34.7821 125.718C34.7573 125.669 34.7573 125.619 34.7324 125.569" stroke="black" stroke-miterlimit="10"/>
<path d="M34.9605 125.066C34.9605 125.293 34.9353 125.494 34.9102 125.695" stroke="black" stroke-miterlimit="10"/>
<path d="M103.89 113.469C103.136 113.771 103.136 113.696 103.01 113.721" stroke="black" stroke-width="2" stroke-miterlimit="10"/>
<path d="M106.76 109.67C105.805 111.205 104.521 110.953 104.521 110.953" stroke="black" stroke-width="2" stroke-miterlimit="10"/>
<path d="M105.902 108.186C105.902 108.186 106.531 108.136 107.16 107.733" stroke="black" stroke-width="2" stroke-miterlimit="10"/>
<path d="M100.57 103.91C100.57 103.91 100.495 103.96 100.344 104.086C99.8907 104.438 98.4568 105.394 97.375 107.381" stroke="black" stroke-width="2" stroke-miterlimit="10"/>
<path d="M142.055 44.2618C142.055 44.2618 143.589 43.4568 145.074 44.2618" stroke="black" stroke-width="2" stroke-miterlimit="10"/>
<path d="M103.188 104.362C102.434 104.588 101.679 104.865 100.975 105.167C100.824 104.765 100.648 104.337 100.497 103.934C98.8865 99.7331 97.6035 96.3369 97.6035 96.3369L99.0123 95.3306C99.7922 96.1104 101.478 100.035 103.188 104.362Z" fill="white" stroke="black" stroke-width="2" stroke-miterlimit="10"/>
<path d="M108.243 118.098L106.935 119.23C106.608 118.903 105.652 116.739 104.47 113.871C104.419 113.771 104.394 113.695 104.344 113.595C104.419 113.569 104.495 113.544 104.57 113.494C105.098 113.268 105.727 112.865 106.205 112.236C107.388 115.481 108.243 118.098 108.243 118.098Z" fill="white" stroke="black" stroke-width="2" stroke-miterlimit="10"/>
<path d="M100.52 98.0225C100.52 98.0225 100.545 100.588 101.4 101.922C102.231 103.255 101.325 103.96 100.771 102.35C100.218 100.739 98.6582 99.1042 98.6582 99.1042" stroke="black" stroke-width="2" stroke-miterlimit="10"/>
<path d="M107.967 118.299C108.093 118.173 108.294 118.249 108.345 118.425L108.974 121.243C108.999 121.343 108.848 121.419 108.772 121.343L106.961 119.28L107.967 118.299Z" fill="white" stroke="black" stroke-width="2" stroke-miterlimit="10"/>
<path d="M75.8911 47.1797C75.237 48.1608 74.1552 48.8149 72.998 49.0664C72.5955 48.7394 72.193 48.4124 71.7653 48.1105C65.6018 43.6325 62.2307 52.5885 62.2307 52.5885C62.2307 52.5885 62.1552 52.2363 61.9791 51.708C61.5011 50.2488 60.2936 47.6073 58.0294 48.6639C54.9351 50.0727 57.7527 55.3809 60.5452 54.5507L56.4948 66.0476C55.1867 64.035 53.3502 62.3746 51.1867 61.318C50.5577 61.0161 49.803 60.6388 49.6521 59.9595C49.5514 59.5067 49.7527 59.0036 49.5514 58.601C49.325 58.1482 48.7213 58.0476 48.2181 58.0979C47.715 58.1482 47.2118 58.3243 46.7338 58.1734C45.9791 57.9721 45.5766 57.1168 45.5263 56.3369C45.476 55.557 45.6772 54.7771 45.6772 53.9973C45.6772 50.7017 42.1049 49.947 41.0735 46.8275C40.8722 46.2488 40.9728 44.0853 41.2747 43.557C41.7024 42.8275 42.6835 42.7017 43.5389 42.6514C45.0483 42.5507 46.5577 42.4753 48.0672 42.3746C49.0483 42.3243 50.0797 42.2488 50.8596 41.6451C52.0923 40.6891 52.193 38.8023 53.4005 37.796C54.608 36.7646 56.4948 37.0916 57.8533 37.9218C59.2118 38.752 60.2684 39.9847 61.5766 40.8652C61.7779 40.991 61.954 41.1168 62.1804 41.2174C61.6269 40.0853 61.2999 38.8526 61.1741 37.5947C61.0986 36.8652 61.1238 36.0602 61.5766 35.4815C62.1301 34.7771 63.1615 34.6514 64.0672 34.8023C65.7779 35.1042 67.3125 36.2866 68.0672 37.8715C68.4948 38.7771 68.6709 39.8086 69.1741 40.6639C69.6269 41.4186 70.3062 41.9721 71.0609 42.4501C71.6647 42.2992 72.2684 42.1734 72.8722 42.1734C74.0546 42.1482 75.2873 42.5759 75.9917 43.5319C76.6709 44.5885 76.5955 46.0979 75.8911 47.1797Z" fill="black"/>
<path d="M72.9742 49.0667C72.8735 49.0918 72.7729 49.117 72.6723 49.117C71.3893 49.3182 70.0811 49.117 68.8484 48.7396C69.3012 49.5195 69.2509 50.6012 68.7226 51.3308C68.1691 52.0604 67.1377 52.4126 66.2824 52.1107C66.1817 52.0855 66.1063 52.0352 66.0056 51.9849C66.0056 52.0352 66.0056 52.0604 66.0056 52.1107C65.9805 52.7396 65.7289 53.3937 65.2006 53.7459C64.7478 54.0478 64.1943 54.0729 63.6408 54.0729C63.188 54.0729 62.6849 54.0478 62.3578 53.7207C62.0559 53.4189 62.0056 52.9409 62.0056 52.488C62.0056 52.2113 61.9805 51.9346 61.9805 51.683C62.1566 52.1862 62.232 52.5635 62.232 52.5635C62.232 52.5635 65.6031 43.5824 71.7666 48.0855C72.1691 48.4126 72.5968 48.7396 72.9742 49.0667Z" fill="black"/>
<path d="M34.8589 125.192C31.035 122.878 27.7897 120.362 24.4941 118.098C25.5507 114.526 28.9721 112.362 28.9721 112.362C27.4879 107.683 30.6577 106.123 32.0916 105.67C32.4187 105.57 32.7457 105.821 32.7206 106.148C32.6702 108.74 32.5445 118.752 34.8589 125.192Z" fill="black" stroke="black" stroke-miterlimit="10"/>
<path d="M66.4069 59.0037L70.3063 64.2867C70.3063 64.2615 64.1931 65.8213 66.4069 59.0037Z" fill="white" stroke="black" stroke-miterlimit="10" stroke-linecap="round" stroke-linejoin="round"/>
<path d="M72.0554 54.9705C73.1433 54.4764 73.8483 53.6862 73.63 53.2054C73.4117 52.7247 72.3527 52.7356 71.2648 53.2297C70.1769 53.7237 69.4719 54.514 69.6902 54.9947C69.9085 55.4754 70.9675 55.4646 72.0554 54.9705Z" fill="white" stroke="black" stroke-miterlimit="10"/>
<path d="M73.0116 54.3341C73.505 54.1101 73.7652 53.6208 73.5929 53.2413C73.4205 52.8617 72.8808 52.7357 72.3875 52.9598C71.8941 53.1838 71.6339 53.6731 71.8062 54.0526C71.9786 54.4322 72.5183 54.5582 73.0116 54.3341Z" fill="black"/>
<path d="M63.4893 41.4944C62.9107 41.4944 62.3321 41.3434 61.7031 41.0164L61.8289 40.7648C62.5836 41.1422 63.288 41.2931 63.917 41.1925C64.7723 41.0415 65.6528 40.2365 65.527 39.3057L65.8038 39.2554C65.9547 40.3371 64.9484 41.2931 63.9673 41.4441C63.8163 41.4944 63.6654 41.4944 63.4893 41.4944Z" fill="#DA3624"/>
<path d="M72.7735 43.5572C72.1446 43.2804 71.4905 42.9534 70.8867 42.6012L71.0377 42.3496C71.6163 42.7018 72.2452 43.0037 72.8993 43.3056L72.7735 43.5572Z" fill="#DA3624"/>
<path d="M62.2559 42.0982C62.0295 41.7208 61.8031 41.3435 61.627 40.9661L61.8785 40.8403C62.0546 41.2177 62.2559 41.5951 62.4823 41.9473L62.2559 42.0982Z" fill="#DA3624"/>
<path d="M69.4014 43.1043L69.3008 42.8276C69.8542 42.6515 70.3825 42.4502 70.9108 42.3245L70.9863 42.6012C70.4832 42.7521 69.9549 42.9282 69.4014 43.1043Z" fill="#DA3624"/>
<mask id="path-39-inside-1" fill="white">
<path d="M66.0798 39.3809L66.0546 39.23L65.5012 39.3055L65.5263 39.4564C65.6521 40.3117 64.8471 41.0413 64.042 41.1922C63.9163 41.2174 63.7653 41.2174 63.6395 41.2174C63.1615 41.2174 62.6584 41.0916 62.1301 40.8149L62.1049 40.7897L62.0798 40.8149C62.0798 40.8149 62.0546 40.8149 62.0546 40.7897L61.9288 40.7143L61.8282 40.9155L61.627 41.0161L61.6773 41.1419C61.6773 41.1419 61.6773 41.1671 61.7024 41.1671L61.6773 41.1922L61.7276 41.2174C61.9037 41.5696 62.1049 41.9218 62.3062 42.274L62.3817 42.3998L62.8597 42.0979L62.7842 41.9721C62.7087 41.8212 62.6081 41.6954 62.5326 41.5444C62.91 41.6702 63.2873 41.7457 63.6647 41.7457C63.8408 41.7457 63.9917 41.7205 64.1678 41.6954C65.1741 41.5696 66.2559 40.5382 66.0798 39.3809Z"/>
</mask>
<path d="M66.0798 39.3809L66.0546 39.23L65.5012 39.3055L65.5263 39.4564C65.6521 40.3117 64.8471 41.0413 64.042 41.1922C63.9163 41.2174 63.7653 41.2174 63.6395 41.2174C63.1615 41.2174 62.6584 41.0916 62.1301 40.8149L62.1049 40.7897L62.0798 40.8149C62.0798 40.8149 62.0546 40.8149 62.0546 40.7897L61.9288 40.7143L61.8282 40.9155L61.627 41.0161L61.6773 41.1419C61.6773 41.1419 61.6773 41.1671 61.7024 41.1671L61.6773 41.1922L61.7276 41.2174C61.9037 41.5696 62.1049 41.9218 62.3062 42.274L62.3817 42.3998L62.8597 42.0979L62.7842 41.9721C62.7087 41.8212 62.6081 41.6954 62.5326 41.5444C62.91 41.6702 63.2873 41.7457 63.6647 41.7457C63.8408 41.7457 63.9917 41.7205 64.1678 41.6954C65.1741 41.5696 66.2559 40.5382 66.0798 39.3809Z" fill="#222222"/>
<path d="M66.0798 39.3809L67.0684 39.2305L67.0673 39.2235L67.0662 39.2165L66.0798 39.3809ZM66.0546 39.23L67.041 39.0656L66.8814 38.108L65.9195 38.2392L66.0546 39.23ZM65.5012 39.3055L65.3661 38.3146L64.3454 38.4538L64.5148 39.4699L65.5012 39.3055ZM65.5263 39.4564L66.5157 39.3109L66.5143 39.3014L66.5127 39.292L65.5263 39.4564ZM64.042 41.1922L63.8577 40.2093L63.8459 40.2117L64.042 41.1922ZM62.1301 40.8149L61.4229 41.5219L61.5309 41.6299L61.6661 41.7007L62.1301 40.8149ZM62.1049 40.7897L62.8121 40.0827L62.105 39.3755L61.3978 40.0826L62.1049 40.7897ZM62.0798 40.8149L62.0797 41.8149L62.494 41.8149L62.7869 41.522L62.0798 40.8149ZM62.0546 40.7897H63.0546V40.2235L62.5691 39.9322L62.0546 40.7897ZM61.9288 40.7143L62.4433 39.8568L61.5173 39.3012L61.0344 40.267L61.9288 40.7143ZM61.8282 40.9155L62.2754 41.8099L62.5736 41.6609L62.7226 41.3627L61.8282 40.9155ZM61.627 41.0161L61.1797 40.1217L60.3567 40.5332L60.6985 41.3875L61.627 41.0161ZM61.6773 41.1419L62.6773 41.1419L62.6773 40.9493L62.6057 40.7705L61.6773 41.1419ZM61.7024 41.1671L62.4095 41.8742L64.1166 40.1671H61.7024V41.1671ZM61.6773 41.1922L60.9702 40.4851L59.989 41.4663L61.2301 42.0867L61.6773 41.1922ZM61.7276 41.2174L62.622 40.7702L62.4729 40.472L62.1747 40.3229L61.7276 41.2174ZM62.3062 42.274L61.438 42.7701L61.4432 42.7794L61.4487 42.7885L62.3062 42.274ZM62.3817 42.3998L61.5242 42.9143L62.0506 43.7916L62.9157 43.2453L62.3817 42.3998ZM62.8597 42.0979L63.3937 42.9434L64.22 42.4215L63.7172 41.5834L62.8597 42.0979ZM62.7842 41.9721L61.8898 42.4193L61.9069 42.4537L61.9267 42.4866L62.7842 41.9721ZM62.5326 41.5444L62.8488 40.5958L60.5585 39.8323L61.6382 41.9917L62.5326 41.5444ZM64.1678 41.6954L64.0438 40.7031L64.0351 40.7042L64.0264 40.7054L64.1678 41.6954ZM67.0662 39.2165L67.041 39.0656L65.0682 39.3944L65.0934 39.5453L67.0662 39.2165ZM65.9195 38.2392L65.3661 38.3146L65.6363 40.2963L66.1897 40.2208L65.9195 38.2392ZM64.5148 39.4699L64.5399 39.6208L66.5127 39.292L66.4876 39.141L64.5148 39.4699ZM64.537 39.6019C64.5452 39.658 64.5351 39.763 64.4005 39.908C64.2599 40.0594 64.0495 40.1734 63.8578 40.2094L64.2263 42.1751C64.8396 42.0601 65.4343 41.7339 65.866 41.2689C66.3037 40.7976 66.6332 40.1101 66.5157 39.3109L64.537 39.6019ZM63.8459 40.2117C63.8527 40.2103 63.8394 40.2133 63.7954 40.2153C63.7525 40.2172 63.7057 40.2174 63.6395 40.2174V42.2174C63.7406 42.2174 63.9967 42.2211 64.2382 42.1728L63.8459 40.2117ZM63.6395 40.2174C63.3437 40.2174 62.9986 40.1409 62.5941 39.9291L61.6661 41.7007C62.3182 42.0423 62.9794 42.2174 63.6395 42.2174V40.2174ZM62.8373 40.1078L62.8121 40.0827L61.3978 41.4968L61.4229 41.5219L62.8373 40.1078ZM61.3978 40.0826L61.3727 40.1078L62.7869 41.522L62.812 41.4968L61.3978 40.0826ZM62.0798 40.8149C62.0798 39.8149 62.0803 39.8149 62.0808 39.8149C62.081 39.8149 62.0815 39.8149 62.0818 39.8149C62.0825 39.8149 62.0831 39.8149 62.0838 39.8149C62.0851 39.8149 62.0864 39.8149 62.0878 39.8149C62.0904 39.8149 62.0931 39.815 62.0959 39.815C62.1014 39.8151 62.1071 39.8152 62.1129 39.8154C62.1245 39.8158 62.1369 39.8164 62.15 39.8174C62.1759 39.8192 62.2064 39.8225 62.2403 39.8281C62.3034 39.8386 62.4029 39.8615 62.5144 39.9173C62.6299 39.9751 62.7758 40.0774 62.8906 40.2496C63.0096 40.428 63.0546 40.621 63.0546 40.7897H61.0546C61.0546 40.971 61.1028 41.1735 61.2265 41.359C61.346 41.5382 61.4982 41.6453 61.62 41.7062C61.7378 41.7651 61.8436 41.7896 61.9114 41.8009C61.9477 41.8069 61.9801 41.8103 62.0074 41.8123C62.0212 41.8133 62.0342 41.8139 62.0461 41.8143C62.0521 41.8145 62.0579 41.8147 62.0635 41.8148C62.0663 41.8148 62.0691 41.8148 62.0718 41.8149C62.0731 41.8149 62.0745 41.8149 62.0758 41.8149C62.0764 41.8149 62.0771 41.8149 62.0778 41.8149C62.0781 41.8149 62.0786 41.8149 62.0787 41.8149C62.0792 41.8149 62.0797 41.8149 62.0798 40.8149ZM62.5691 39.9322L62.4433 39.8568L61.4143 41.5717L61.5401 41.6472L62.5691 39.9322ZM61.0344 40.267L60.9338 40.4683L62.7226 41.3627L62.8233 41.1615L61.0344 40.267ZM61.381 40.0211L61.1797 40.1217L62.0742 41.9106L62.2754 41.8099L61.381 40.0211ZM60.6985 41.3875L60.7488 41.5133L62.6057 40.7705L62.5554 40.6448L60.6985 41.3875ZM61.6773 41.1419C60.6773 41.142 60.6773 41.1425 60.6773 41.143C60.6773 41.1431 60.6773 41.1436 60.6773 41.144C60.6773 41.1446 60.6773 41.1453 60.6773 41.1459C60.6773 41.1473 60.6773 41.1486 60.6773 41.1499C60.6773 41.1526 60.6774 41.1554 60.6774 41.1582C60.6775 41.1638 60.6776 41.1696 60.6778 41.1756C60.6782 41.1876 60.6789 41.2005 60.6799 41.2143C60.6818 41.2416 60.6852 41.274 60.6913 41.3103C60.7026 41.3782 60.7271 41.4839 60.786 41.6017C60.8469 41.7235 60.9539 41.8757 61.1332 41.9952C61.3187 42.1189 61.5211 42.1671 61.7024 42.1671V40.1671C61.8711 40.1671 62.0641 40.2121 62.2426 40.3311C62.4148 40.4459 62.5171 40.5918 62.5748 40.7073C62.6306 40.8188 62.6535 40.9183 62.664 40.9814C62.6697 41.0153 62.6729 41.0458 62.6748 41.0717C62.6757 41.0848 62.6763 41.0972 62.6767 41.1088C62.6769 41.1147 62.677 41.1203 62.6771 41.1258C62.6772 41.1286 62.6772 41.1313 62.6772 41.1339C62.6772 41.1353 62.6773 41.1366 62.6773 41.1379C62.6773 41.1386 62.6773 41.1393 62.6773 41.1399C62.6773 41.1402 62.6773 41.1407 62.6773 41.1409C62.6773 41.1414 62.6773 41.1419 61.6773 41.1419ZM60.9953 40.46L60.9702 40.4851L62.3844 41.8994L62.4095 41.8742L60.9953 40.46ZM61.2301 42.0867L61.2804 42.1119L62.1747 40.3229L62.1244 40.2978L61.2301 42.0867ZM60.8332 41.6646C61.0238 42.046 61.2393 42.4225 61.438 42.7701L63.1744 41.7779C62.9706 41.4211 62.7835 41.0932 62.622 40.7702L60.8332 41.6646ZM61.4487 42.7885L61.5242 42.9143L63.2392 41.8853L63.1637 41.7595L61.4487 42.7885ZM62.9157 43.2453L63.3937 42.9434L62.3257 41.2524L61.8477 41.5543L62.9157 43.2453ZM63.7172 41.5834L63.6417 41.4576L61.9267 42.4866L62.0022 42.6124L63.7172 41.5834ZM63.6786 41.5249C63.6141 41.3959 63.542 41.2842 63.5021 41.2214C63.454 41.1459 63.438 41.1192 63.427 41.0972L61.6382 41.9917C61.7027 42.1206 61.7748 42.2323 61.8147 42.2952C61.8628 42.3707 61.8788 42.3974 61.8898 42.4193L63.6786 41.5249ZM62.2164 42.4931C62.6679 42.6436 63.154 42.7457 63.6647 42.7457V40.7457C63.4207 40.7457 63.1521 40.6968 62.8488 40.5958L62.2164 42.4931ZM63.6647 42.7457C63.9287 42.7457 64.1624 42.7063 64.3093 42.6853L64.0264 40.7054C63.8211 40.7348 63.7529 40.7457 63.6647 40.7457V42.7457ZM64.2919 42.6877C65.064 42.5912 65.7981 42.1665 66.3124 41.5917C66.8337 41.0092 67.2119 40.1735 67.0684 39.2305L65.0912 39.5314C65.1238 39.7456 65.0491 40.0042 64.822 40.2582C64.5878 40.5198 64.278 40.6738 64.0438 40.7031L64.2919 42.6877Z" fill="#222222" mask="url(#path-39-inside-1)"/>
<mask id="path-41-inside-2" fill="white">
<path d="M73.0978 43.3054C72.4689 43.0035 71.8399 42.7267 71.2613 42.3745L71.1859 42.3242V42.2991H71.1607H71.1355V42.3242L71.0601 42.3494C70.5066 42.5003 69.9783 42.6764 69.45 42.8525L69.3242 42.9028L69.5003 43.4311L69.6261 43.3808C70.1293 43.2047 70.6072 43.0538 71.1104 42.9028C71.689 43.255 72.3179 43.5318 72.8965 43.8085L73.0223 43.8588L73.2487 43.3557L73.0978 43.3054Z"/>
</mask>
<path d="M73.0978 43.3054C72.4689 43.0035 71.8399 42.7267 71.2613 42.3745L71.1859 42.3242V42.2991H71.1607H71.1355V42.3242L71.0601 42.3494C70.5066 42.5003 69.9783 42.6764 69.45 42.8525L69.3242 42.9028L69.5003 43.4311L69.6261 43.3808C70.1293 43.2047 70.6072 43.0538 71.1104 42.9028C71.689 43.255 72.3179 43.5318 72.8965 43.8085L73.0223 43.8588L73.2487 43.3557L73.0978 43.3054Z" fill="#222222"/>
<path d="M73.0978 43.3054L72.6651 44.2069L72.7218 44.2341L72.7816 44.254L73.0978 43.3054ZM71.2613 42.3745L70.7066 43.2066L70.7238 43.218L70.7414 43.2287L71.2613 42.3745ZM71.1859 42.3242H70.1859V42.8594L70.6312 43.1563L71.1859 42.3242ZM71.1859 42.2991H72.1859V41.2991H71.1859V42.2991ZM71.1355 42.2991V41.2991H70.1355V42.2991H71.1355ZM71.1355 42.3242L71.4518 43.2729L72.1355 43.045V42.3242H71.1355ZM71.0601 42.3494L71.3232 43.3141L71.35 43.3068L71.3763 43.2981L71.0601 42.3494ZM69.45 42.8525L69.1338 41.9038L69.1059 41.9131L69.0786 41.9241L69.45 42.8525ZM69.3242 42.9028L68.9528 41.9744L68.0774 42.3246L68.3755 43.2191L69.3242 42.9028ZM69.5003 43.4311L68.5516 43.7474L68.887 44.7535L69.8717 44.3596L69.5003 43.4311ZM69.6261 43.3808L69.2958 42.437L69.2751 42.4442L69.2547 42.4524L69.6261 43.3808ZM71.1104 42.9028L71.6303 42.0486L71.2498 41.817L70.823 41.945L71.1104 42.9028ZM72.8965 43.8085L72.4651 44.7106L72.4947 44.7248L72.5252 44.737L72.8965 43.8085ZM73.0223 43.8588L72.6509 44.7873L73.5409 45.1433L73.9343 44.2692L73.0223 43.8588ZM73.2487 43.3557L74.1607 43.766L74.6148 42.7569L73.565 42.407L73.2487 43.3557ZM73.5305 42.4038C72.8602 42.0821 72.304 41.8385 71.7813 41.5203L70.7414 43.2287C71.3759 43.6149 72.0775 43.9249 72.6651 44.2069L73.5305 42.4038ZM71.816 41.5425L71.7406 41.4922L70.6312 43.1563L70.7066 43.2066L71.816 41.5425ZM72.1859 42.3242V42.2991H70.1859V42.3242H72.1859ZM71.1859 41.2991H71.1607V43.2991H71.1859V41.2991ZM71.1607 41.2991H71.1355V43.2991H71.1607V41.2991ZM70.1355 42.2991V42.3242H72.1355V42.2991H70.1355ZM70.8193 41.3755L70.7439 41.4007L71.3763 43.2981L71.4518 43.2729L70.8193 41.3755ZM70.797 41.3846C70.2125 41.544 69.6583 41.729 69.1338 41.9038L69.7662 43.8012C70.2983 43.6238 70.8008 43.4566 71.3232 43.3141L70.797 41.3846ZM69.0786 41.9241L68.9528 41.9744L69.6956 43.8313L69.8214 43.781L69.0786 41.9241ZM68.3755 43.2191L68.5516 43.7474L70.449 43.1149L70.2729 42.5866L68.3755 43.2191ZM69.8717 44.3596L69.9975 44.3093L69.2547 42.4524L69.1289 42.5027L69.8717 44.3596ZM69.9565 44.3247C70.4409 44.1551 70.9036 44.0089 71.3977 43.8607L70.823 41.945C70.3109 42.0987 69.8176 42.2543 69.2958 42.437L69.9565 44.3247ZM70.5904 43.757C71.2255 44.1436 71.926 44.4528 72.4651 44.7106L73.328 42.9064C72.7099 42.6107 72.1525 42.3665 71.6303 42.0486L70.5904 43.757ZM72.5252 44.737L72.6509 44.7873L73.3937 42.9303L73.2679 42.88L72.5252 44.737ZM73.9343 44.2692L74.1607 43.766L72.3368 42.9453L72.1104 43.4485L73.9343 44.2692ZM73.565 42.407L73.414 42.3567L72.7816 44.254L72.9325 44.3044L73.565 42.407Z" fill="#222222" mask="url(#path-41-inside-2)"/>
<mask id="path-43-inside-3" fill="white">
<path d="M65.8298 50.7521L65.8801 50.6263L65.377 50.3999L65.3267 50.5257C64.9745 51.3559 65.5028 52.2615 66.2323 52.6641L66.3581 52.7395L66.6349 52.2364L66.5091 52.1609C65.9808 51.9093 65.6034 51.2804 65.8298 50.7521Z"/>
</mask>
<path d="M65.8298 50.7521L65.8801 50.6263L65.377 50.3999L65.3267 50.5257C64.9745 51.3559 65.5028 52.2615 66.2323 52.6641L66.3581 52.7395L66.6349 52.2364L66.5091 52.1609C65.9808 51.9093 65.6034 51.2804 65.8298 50.7521Z" fill="#222222"/>
<path d="M65.8298 50.7521L66.749 51.146L66.7538 51.1348L66.7583 51.1235L65.8298 50.7521ZM65.8801 50.6263L66.8086 50.9977L67.1646 50.1078L66.2905 49.7144L65.8801 50.6263ZM65.377 50.3999L65.7874 49.488L64.836 49.0599L64.4485 50.0285L65.377 50.3999ZM65.3267 50.5257L66.2473 50.9162L66.2513 50.9067L66.2552 50.8971L65.3267 50.5257ZM66.2323 52.6641L66.7468 51.8066L66.7313 51.7972L66.7154 51.7885L66.2323 52.6641ZM66.3581 52.7395L65.8436 53.597L66.734 54.1312L67.2343 53.2214L66.3581 52.7395ZM66.6349 52.2364L67.5111 52.7183L67.9752 51.8744L67.1494 51.3789L66.6349 52.2364ZM66.5091 52.1609L67.0236 51.3034L66.9824 51.2787L66.939 51.258L66.5091 52.1609ZM66.7583 51.1235L66.8086 50.9977L64.9517 50.2549L64.9014 50.3807L66.7583 51.1235ZM66.2905 49.7144L65.7874 49.488L64.9666 51.3118L65.4698 51.5382L66.2905 49.7144ZM64.4485 50.0285L64.3982 50.1543L66.2552 50.8971L66.3055 50.7713L64.4485 50.0285ZM64.4061 50.1351C63.783 51.604 64.7498 52.9882 65.7493 53.5396L66.7154 51.7885C66.5277 51.6849 66.3646 51.5118 66.2785 51.3291C66.1978 51.1577 66.2017 51.0237 66.2473 50.9162L64.4061 50.1351ZM65.7178 53.5215L65.8436 53.597L66.8726 51.882L66.7468 51.8066L65.7178 53.5215ZM67.2343 53.2214L67.5111 52.7183L65.7587 51.7545L65.4819 52.2576L67.2343 53.2214ZM67.1494 51.3789L67.0236 51.3034L65.9946 53.0184L66.1204 53.0939L67.1494 51.3789ZM66.939 51.258C66.9098 51.2442 66.8758 51.2214 66.8432 51.19C66.8106 51.1584 66.7877 51.1261 66.7742 51.1C66.7606 51.0737 66.7616 51.0642 66.7625 51.0741C66.7636 51.0874 66.7622 51.1152 66.749 51.146L64.9107 50.3582C64.6526 50.9604 64.7638 51.5677 64.9987 52.0206C65.2311 52.4688 65.6182 52.8443 66.0791 53.0638L66.939 51.258Z" fill="#222222" mask="url(#path-43-inside-3)"/>
<path d="M42.5846 45.519C42.5846 45.519 42.4589 48.6385 45.679 50.3995L42.5846 45.519Z" fill="#222222"/>
<path d="M42.5846 45.519C42.5846 45.519 42.4589 48.6385 45.679 50.3995" stroke="#222222" stroke-width="2" stroke-miterlimit="10" stroke-linecap="round"/>
<path d="M59.3616 50.5002C59.3616 50.5002 57.9779 50.6009 58.6823 52.5883" stroke="black" stroke-miterlimit="10" stroke-linecap="round"/>
<path d="M58.5566 51.1545C58.5566 51.1545 60.0661 51.23 60.3428 52.4124" stroke="black" stroke-miterlimit="10" stroke-linecap="round" stroke-linejoin="round"/>
<path d="M107.162 78.5259C101.955 84.463 98.2062 89.0668 97.6779 89.746C96.3446 87.4315 93.049 83.2051 90.332 79.7334C91.9169 80.3875 100.772 84.1108 107.162 78.5259Z" fill="black" stroke="black" stroke-miterlimit="10" stroke-linecap="round" stroke-linejoin="round"/>
<path d="M116.342 57.8212C110.581 56.6892 104.594 57.0665 100.594 57.5697C103.235 56.1609 106.028 54.7269 108.845 53.3433C112.644 53.7709 116.971 54.7018 119.059 56.0854C121.298 57.5697 119.587 57.8967 118.254 57.9722C117.625 58.0225 116.971 57.947 116.342 57.8212Z" fill="black" stroke="black" stroke-miterlimit="10"/>
<path d="M38.885 96.815C38.9856 97.1924 39.0359 97.5698 39.0359 97.9471C39.0359 98.9786 38.7341 100.513 36.4448 98.2238C34.4322 96.2113 34.7844 91.0289 35.3127 87.532C38.558 83.8339 41.9039 80.9911 44.8221 78.8779C43.0863 81.4943 37.4007 90.6264 38.885 96.815Z" fill="black" stroke="black" stroke-miterlimit="10"/>
<path d="M97.7285 107.582C97.7285 107.582 98.2317 106.274 99.0115 105.67C99.8166 105.066 100.672 106.601 99.6908 107.582C98.7096 108.563 97.7285 107.582 97.7285 107.582Z" fill="#DA3624"/>
<path d="M104.496 114.652C104.496 114.652 106.283 114.828 106.836 113.494L105.955 112.035L103.893 113.192L104.496 114.652Z" fill="black"/>
<path d="M115.615 80.1102C115.615 80.1102 120.043 70.1479 134.03 58.802" stroke="black" stroke-width="2" stroke-miterlimit="10" stroke-linecap="round"/>
<path d="M30.1836 136.362C30.1836 136.362 30.3345 151.985 47.6679 157.117" stroke="black" stroke-width="2" stroke-miterlimit="10"/>
<path d="M95.9897 161.494C97.5319 161.494 98.7822 160.244 98.7822 158.702C98.7822 157.16 97.5319 155.909 95.9897 155.909C94.4475 155.909 93.1973 157.16 93.1973 158.702C93.1973 160.244 94.4475 161.494 95.9897 161.494Z" fill="black"/>
<path d="M21.4265 85.5443C24.5248 85.5443 27.0365 83.0326 27.0365 79.9343C27.0365 76.8359 24.5248 74.3242 21.4265 74.3242C18.3281 74.3242 15.8164 76.8359 15.8164 79.9343C15.8164 83.0326 18.3281 85.5443 21.4265 85.5443Z" fill="black"/>
<path d="M99.3398 96.2617C99.3398 96.2617 100.497 99.8592 99.8933 100.664L101.252 103.281L101.78 102.954L100.698 99.9095L100.195 97.6202L99.3398 96.2617Z" fill="black"/>
<path opacity="0.2" d="M214.636 36.6635C213.026 38.7013 210.712 40.1101 208.12 40.4371C207.793 40.4874 207.466 40.5126 207.164 40.4874C207.013 40.4874 206.837 40.4874 206.686 40.4623H206.661C206.359 40.4371 206.083 40.3616 205.806 40.261C204.825 39.8836 204.246 38.9528 204.573 37.0912C205.051 34.4497 206.435 33.5189 207.743 33.5189C205.152 33.3679 199.617 32.8145 193.73 30.6509C193.705 30.3994 193.68 30.0975 193.63 29.7704C193.58 29.0157 193.479 28.2862 193.278 27.5566C192.07 22.9277 192.649 19.9843 193.403 18.2736C193.982 16.9654 194.058 15.5063 193.63 14.1226C192.02 8.81446 197.429 4.05974 197.429 4.05974L197.63 3.98427C198.058 4.03458 198.485 4.05974 198.888 4.0849C200.473 4.16037 202.083 4.05974 203.642 3.78301C204.07 3.70754 204.498 3.63207 204.9 3.53144C205.001 3.50628 205.102 3.48112 205.202 3.45597C205.781 3.33018 206.51 3.20439 207.341 3.12892C208.8 3.02829 210.536 3.20439 212.12 4.05974C212.12 4.05974 208.473 4.00943 207.743 7.68238C207.592 8.38679 207.567 9.26729 207.693 10.2736C207.894 11.9843 208.573 14.173 209.881 16.9654C213.756 25.066 219.894 29.9969 214.636 36.6635Z" fill="#0033A1"/>
<path d="M211.966 7.68299L211.841 7.5572L211.966 7.68299ZM211.841 7.5572L211.715 7.43142L211.841 7.3811V7.5572Z" fill="black"/>
<path d="M215.015 9.31841C214.763 10.5763 213.883 11.7587 211.392 11.0794C211.367 11.0794 211.316 11.0543 211.291 11.0543C211.291 11.0543 211.291 11.0543 211.266 11.0291C211.04 10.8782 209.153 9.46936 211.82 7.55741C211.669 7.65804 209.933 8.63917 207.744 7.75867C208.474 4.08571 212.122 4.13602 212.122 4.13602C212.65 4.41275 213.178 4.79011 213.656 5.24294C214.763 6.29955 215.316 7.80898 215.015 9.31841Z" fill="black"/>
<path d="M212.698 11.4566C212.296 11.4566 211.843 11.3811 211.34 11.2553C211.315 11.2553 211.289 11.2553 211.264 11.2302L211.214 11.205L211.189 11.1799C211.189 11.1799 211.164 11.1799 211.164 11.1547L211.088 11.1044C210.837 10.9031 210.233 10.3497 210.233 9.5698C210.233 9.09182 210.459 8.58867 210.887 8.11068C210.107 8.31194 208.975 8.41257 207.692 7.88427L207.541 7.83395L207.566 7.68301C208.321 3.90942 212.094 3.90942 212.12 3.90942H212.17L212.22 3.93458C212.799 4.23647 213.302 4.61383 213.78 5.06666C214.962 6.19873 215.491 7.78364 215.189 9.31823C215.013 10.1484 214.661 10.727 214.082 11.0792C213.705 11.3308 213.252 11.4566 212.698 11.4566ZM211.466 10.9031C212.522 11.1799 213.327 11.1547 213.906 10.8025C214.384 10.5006 214.686 9.99748 214.837 9.29307C215.113 7.90943 214.635 6.45031 213.554 5.3937C213.126 4.96603 212.623 4.61383 212.12 4.3371C211.692 4.3371 208.723 4.5132 207.994 7.65785C210.057 8.43773 211.692 7.4566 211.767 7.43144L211.969 7.73332C211.088 8.36226 210.635 8.99119 210.635 9.62012C210.635 10.2742 211.164 10.727 211.365 10.878H211.491L211.466 10.9031Z" fill="black"/>
<path d="M207.212 40.6639C207.186 40.6639 207.161 40.6639 207.136 40.6639C206.96 40.6639 206.809 40.6639 206.658 40.6387C206.658 40.6387 206.633 40.6387 206.608 40.6387C206.281 40.6136 205.979 40.5381 205.727 40.4375C204.52 39.9595 204.067 38.8274 204.369 37.0664C204.671 35.3557 205.425 34.1481 206.482 33.6198C203.513 33.3683 198.708 32.689 193.652 30.8274C193.576 30.8022 193.526 30.7519 193.526 30.6764C193.501 30.4249 193.476 30.123 193.425 29.7959C193.224 28.1859 192.872 26.601 192.344 25.0915C191.237 21.7959 189.551 19.0035 187.262 16.7896C185.274 14.8525 184.293 12.7896 184.344 10.6261C184.419 7.12927 187.161 4.66386 187.262 4.56323C187.287 4.53807 190.708 1.64499 194.633 3.15442C195.111 3.33052 195.664 3.48147 196.243 3.60725C196.696 3.70788 197.149 3.78335 197.627 3.83367C198.029 3.88398 198.457 3.90914 198.885 3.9343C200.394 4.00977 201.979 3.90914 203.589 3.65757C203.991 3.5821 204.419 3.50662 204.847 3.40599C204.947 3.38084 205.048 3.35568 205.149 3.33052C205.878 3.15442 206.608 3.05379 207.312 3.00348C209.174 2.87769 210.809 3.20474 212.193 3.95945C212.268 4.00977 212.293 4.08524 212.293 4.16071C212.268 4.23618 212.193 4.2865 212.117 4.2865C211.966 4.2865 208.62 4.2865 207.916 7.7582C207.765 8.48776 207.74 9.3431 207.866 10.2991C208.092 12.1356 208.822 14.3746 210.054 16.9154C211.01 18.928 212.117 20.7142 213.174 22.45C216.293 27.5821 218.784 31.6576 214.759 36.7393C213.048 38.9029 210.708 40.2614 208.117 40.5632C207.79 40.6639 207.488 40.6639 207.212 40.6639ZM206.683 40.2865C206.683 40.2865 206.708 40.2865 206.683 40.2865C206.834 40.3117 206.985 40.3117 207.161 40.3117C207.438 40.3117 207.74 40.2865 208.092 40.2613C210.583 39.9595 212.847 38.6261 214.482 36.5632C218.331 31.6827 215.916 27.7079 212.872 22.7016C211.815 20.9657 210.708 19.1544 209.752 17.1167C208.52 14.5255 207.765 12.2613 207.539 10.3745C207.413 9.39342 207.438 8.48776 207.589 7.70788C208.142 4.91543 210.356 4.18587 211.488 4.00977C210.306 3.50662 208.922 3.28021 207.388 3.38084C206.683 3.43115 205.979 3.53178 205.3 3.68272C205.199 3.70788 205.098 3.73304 204.998 3.7582C204.57 3.85882 204.142 3.9343 203.715 4.00977C202.079 4.2865 200.444 4.38713 198.91 4.31166C198.482 4.2865 198.054 4.26134 197.627 4.21103C197.149 4.16071 196.671 4.08524 196.218 3.98461C195.614 3.85882 195.061 3.70788 194.557 3.50662C190.834 2.09782 187.589 4.83996 187.564 4.86511C187.539 4.89027 184.847 7.33052 184.771 10.6764C184.721 12.7393 185.677 14.7268 187.589 16.5632C189.903 18.8022 191.639 21.645 192.746 25.0161C193.249 26.5758 193.627 28.1859 193.828 29.7959C193.853 30.0727 193.878 30.3242 193.903 30.5758C199.639 32.689 205.023 33.2425 207.74 33.3934C207.841 33.3934 207.916 33.4941 207.916 33.5947C207.916 33.6953 207.841 33.7708 207.74 33.7708C207.035 33.7708 205.3 34.0978 204.746 37.1922C204.469 38.7771 204.822 39.733 205.853 40.1607C206.105 40.1859 206.381 40.2362 206.683 40.2865Z" fill="black"/>
<path d="M209.906 36.9158C209.881 36.9158 209.831 36.9158 209.806 36.8907C209.73 36.8403 209.705 36.7146 209.755 36.6391C210.233 35.985 210.133 35.4064 209.957 35.0542C209.63 34.3498 208.85 33.8215 207.969 33.746C207.894 33.746 207.843 33.746 207.768 33.746C207.667 33.746 207.592 33.6705 207.592 33.5699C207.592 33.4693 207.667 33.3938 207.768 33.3938C207.843 33.3938 207.919 33.3938 207.994 33.3938C209.001 33.4944 209.931 34.0982 210.284 34.9284C210.585 35.5825 210.485 36.2869 210.057 36.8907C210.032 36.8907 209.982 36.9158 209.906 36.9158Z" fill="black"/>
<path d="M211.261 11.205C211.236 11.205 211.211 11.205 211.211 11.205C210.028 10.8277 208.494 10.6264 207.689 10.5258C207.613 10.5258 207.538 10.4503 207.538 10.3749C207.412 9.39372 207.437 8.48806 207.588 7.70819C207.588 7.65788 207.638 7.60756 207.689 7.5824C207.739 7.55725 207.789 7.55725 207.839 7.5824C209.978 8.46291 211.663 7.45662 211.739 7.4063C211.814 7.35599 211.94 7.38115 211.99 7.45662C212.041 7.53209 212.016 7.65788 211.94 7.70819C211.06 8.33712 210.607 8.96605 210.607 9.59498C210.607 10.3245 211.261 10.8025 211.387 10.9032C211.462 10.9535 211.487 11.0541 211.437 11.1296C211.412 11.1799 211.336 11.205 211.261 11.205ZM207.89 10.1736C208.569 10.2491 209.651 10.4 210.632 10.6516C210.431 10.3749 210.255 10.0227 210.255 9.59498C210.255 9.117 210.481 8.61385 210.909 8.13586C210.179 8.33712 209.122 8.43775 207.94 7.98492C207.789 8.63901 207.789 9.36857 207.89 10.1736Z" fill="black"/>
<path d="M206.658 40.4621C202.985 40.2608 194.406 39.6067 190.054 37.6193C187.966 36.6633 186.834 34.3237 187.564 32.1602C188.117 30.4747 189.702 29.1665 193.727 30.6508C199.589 32.8394 205.148 33.3677 207.74 33.5187C206.457 33.5187 205.048 34.4495 204.57 37.091C204.142 39.4558 205.199 40.3111 206.658 40.4621Z" fill="black"/>
<path d="M206.66 40.6389C203.113 40.4376 194.383 39.7836 189.981 37.7961C187.767 36.7898 186.635 34.3496 187.39 32.1106C187.691 31.1798 188.245 30.5257 189 30.1735C190.132 29.62 191.742 29.7458 193.805 30.5005C199.566 32.6389 205.025 33.2175 207.767 33.3685V33.7458C207.063 33.7458 205.327 34.0729 204.773 37.1672C204.597 38.2238 204.698 39.0037 205.075 39.532C205.402 39.9597 205.956 40.2364 206.685 40.3119L206.66 40.6389ZM190.66 30.1735C190.081 30.1735 189.578 30.2741 189.151 30.4754C188.471 30.8024 187.993 31.381 187.717 32.2112C187.037 34.2741 188.069 36.5383 190.107 37.4691C193.956 39.2049 201.201 39.9345 205.251 40.2112C205.05 40.0854 204.899 39.9345 204.748 39.7332C204.295 39.1295 204.169 38.2238 204.371 37.0917C204.673 35.381 205.427 34.1735 206.484 33.6452C203.515 33.3936 198.71 32.7144 193.654 30.8527C192.522 30.3999 191.515 30.1735 190.66 30.1735Z" fill="black"/>
<path d="M193.201 7.12955C193.151 7.2805 193.075 7.53207 192.975 7.88427C192.874 8.23647 192.773 8.56352 192.698 8.81509C192.622 9.09182 192.572 9.34339 192.522 9.59496C192.446 9.92201 192.421 10.1987 192.396 10.4755C192.371 10.727 192.371 10.9786 192.396 11.2302C192.396 11.3057 192.396 11.356 192.421 11.4063C192.421 11.4566 192.446 11.5069 192.446 11.5824C192.471 11.6579 192.471 11.7082 192.497 11.7585C192.522 11.8088 192.547 11.8591 192.597 11.9094C192.648 11.9597 192.698 11.9849 192.748 12.0101C192.798 12.0352 192.798 12.0604 192.748 12.0855C192.723 12.1107 192.698 12.1107 192.648 12.1107C192.572 12.0855 192.522 12.0604 192.471 12.0101C192.421 11.9597 192.371 11.9094 192.346 11.8591C192.32 11.8088 192.295 11.7333 192.27 11.6579C192.245 11.5824 192.245 11.5069 192.22 11.4314C192.22 11.356 192.195 11.2805 192.195 11.1799C192.195 11.0792 192.195 11.0038 192.195 10.9283C192.195 10.8528 192.195 10.7774 192.22 10.6767C192.22 10.5761 192.245 10.5006 192.245 10.4503C192.245 10.4 192.27 10.3245 192.27 10.2491C192.27 10.2239 192.27 10.1987 192.27 10.1736C192.346 9.62012 192.497 8.96603 192.723 8.21131C192.723 8.18616 192.748 8.13584 192.773 8.03521C192.798 7.93458 192.824 7.83396 192.849 7.70817C192.874 7.60754 192.899 7.48175 192.949 7.38113C192.975 7.25534 193.025 7.17987 193.05 7.1044C193.075 7.02892 193.1 7.00377 193.126 7.00377C193.1 7.00377 193.05 7.02892 193.025 7.05408C192.975 7.1044 192.949 7.12955 192.899 7.17987C192.874 7.23018 192.824 7.2805 192.773 7.33081C192.723 7.38113 192.698 7.43144 192.698 7.43144C192.522 7.6327 192.32 7.88427 192.069 8.21131C191.44 9.0415 190.71 10.0478 189.88 11.2302C189.855 11.2553 189.83 11.2805 189.78 11.2805C189.729 11.2805 189.729 11.2553 189.729 11.2302C190.157 10.0981 190.459 9.06666 190.635 8.18616C190.635 8.161 190.66 8.11069 190.66 8.01006C190.685 7.90943 190.71 7.83396 190.71 7.78364C190.71 7.73333 190.736 7.65786 190.761 7.55723C190.786 7.4566 190.786 7.38113 190.786 7.30565C190.786 7.23018 190.786 7.15471 190.786 7.07924C190.786 7.00377 190.761 6.9283 190.736 6.87798C190.71 6.82767 190.66 6.77735 190.61 6.72704C190.484 6.60125 190.308 6.62641 190.157 6.77735C190.006 6.9283 189.88 7.1044 189.805 7.35597C189.704 7.65786 189.729 7.88427 189.83 8.06037C189.88 8.161 189.956 8.21131 190.081 8.26163C190.132 8.28679 190.132 8.31194 190.081 8.3371C190.056 8.36226 190.006 8.36226 189.981 8.36226C189.855 8.31194 189.78 8.26163 189.704 8.161C189.629 8.06037 189.604 7.95974 189.604 7.83396C189.604 7.70817 189.604 7.60754 189.629 7.48175C189.654 7.35597 189.704 7.23018 189.754 7.12955C189.805 7.02892 189.855 6.9283 189.931 6.85282C189.981 6.77735 190.056 6.72704 190.132 6.67672C190.207 6.62641 190.308 6.60125 190.383 6.57609C190.459 6.55094 190.559 6.57609 190.635 6.60125C190.71 6.62641 190.786 6.70188 190.836 6.80251C190.861 6.85282 190.887 6.9283 190.912 6.97861C190.937 7.05408 190.937 7.12955 190.937 7.20503C190.937 7.2805 190.937 7.35597 190.937 7.43144C190.937 7.50691 190.937 7.58238 190.912 7.68301C190.887 7.78364 190.887 7.85911 190.861 7.90943C190.861 7.95974 190.836 8.03521 190.811 8.13584C190.786 8.23647 190.786 8.31194 190.761 8.3371C190.585 9.11698 190.358 9.94716 190.031 10.878C190.358 10.4252 190.559 10.0981 190.685 9.94716C191.314 9.06666 191.843 8.36226 192.22 7.88427C192.471 7.55723 192.673 7.33081 192.798 7.17987L192.824 7.15471C192.849 7.12955 192.849 7.12955 192.874 7.1044C192.874 7.1044 192.899 7.07924 192.924 7.05408C192.949 7.02892 192.949 7.02892 192.975 7.00377C193 7.00377 193 6.97861 193.025 6.97861C193.05 6.95345 193.075 6.95345 193.075 6.95345C193.1 6.95345 193.1 6.95345 193.126 6.95345C193.151 6.95345 193.151 6.95345 193.176 6.97861L193.201 7.00377C193.201 7.00377 193.201 7.02892 193.201 7.05408C193.201 7.07924 193.201 7.07924 193.201 7.1044C193.201 7.1044 193.201 7.12955 193.176 7.15471C193.201 7.1044 193.201 7.1044 193.201 7.12955Z" fill="black"/>
<path d="M195.462 10.4754C195.487 10.4503 195.538 10.4503 195.563 10.4503C195.588 10.4503 195.588 10.4754 195.563 10.5006C195.336 10.6767 195.085 10.8276 194.783 10.9534C194.481 11.0792 194.204 11.1295 193.903 11.1547C193.877 11.1547 193.852 11.1547 193.802 11.1547C193.752 11.1547 193.726 11.1547 193.701 11.1547C193.676 11.1547 193.651 11.1547 193.601 11.1547C193.55 11.1547 193.525 11.1547 193.525 11.1295C193.5 11.1295 193.475 11.1044 193.45 11.1044C193.425 11.0792 193.399 11.0792 193.399 11.0289C193.399 11.0037 193.374 10.9786 193.374 10.9283C193.374 10.9031 193.374 10.878 193.374 10.8276C193.148 11.1044 192.972 11.205 192.821 11.1547C192.695 11.1044 192.67 10.9786 192.796 10.7773C192.896 10.6264 193.022 10.4754 193.198 10.3748C193.324 10.2742 193.425 10.249 193.5 10.249C193.55 10.249 193.55 10.2742 193.525 10.2993C193.5 10.3245 193.475 10.3245 193.45 10.3245C193.374 10.3245 193.274 10.3748 193.173 10.4754C193.072 10.5761 192.997 10.6767 192.947 10.7773C192.947 10.8025 192.921 10.8025 192.921 10.8276C192.921 10.8528 192.896 10.878 192.896 10.9031C192.896 10.9283 192.896 10.9534 192.896 11.0037C192.896 11.0289 192.921 11.0541 192.921 11.0541H192.947H192.972C192.972 11.0541 192.997 11.0541 192.997 11.0289L193.022 11.0037C193.047 11.0037 193.047 10.9786 193.047 10.9786L193.072 10.9534C193.072 10.9283 193.097 10.9283 193.097 10.9283L193.123 10.9031L193.148 10.878C193.299 10.727 193.45 10.5258 193.601 10.2993C193.626 10.2742 193.651 10.249 193.701 10.249C193.752 10.249 193.752 10.2742 193.726 10.2993C193.626 10.4754 193.575 10.6012 193.525 10.727C193.5 10.7773 193.5 10.8025 193.5 10.8276C193.5 10.8528 193.5 10.8528 193.475 10.878C193.475 10.9031 193.475 10.9283 193.475 10.9283C193.475 10.9534 193.475 10.9534 193.475 10.9786C193.475 11.0037 193.5 11.0037 193.525 11.0289C193.55 11.0289 193.575 11.0541 193.601 11.0541C193.626 11.0541 193.651 11.0541 193.701 11.0541C193.726 11.0541 193.777 11.0541 193.802 11.0541C193.827 11.0541 193.852 11.0541 193.903 11.0541C193.953 11.0541 193.978 11.0541 194.003 11.0541C194.028 11.0541 194.053 11.0541 194.079 11.0541C194.104 11.0541 194.129 11.0541 194.129 11.0541C194.355 11.0289 194.582 10.9534 194.808 10.8528C195.085 10.7522 195.286 10.6264 195.462 10.4754Z" fill="black"/>
<path d="M199.336 10.4249C199.361 10.3998 199.386 10.3998 199.437 10.3998C199.462 10.3998 199.487 10.4249 199.462 10.4501C199.286 10.6514 199.059 10.8275 198.808 10.9532C198.556 11.079 198.304 11.1545 198.053 11.1545C197.902 11.1545 197.776 11.1293 197.701 11.0539C197.625 11.0036 197.575 10.8778 197.525 10.7268C197.525 10.7017 197.525 10.6765 197.499 10.6514C197.499 10.601 197.474 10.5759 197.474 10.5507C197.474 10.5256 197.449 10.5004 197.449 10.4501C197.424 10.4249 197.424 10.3998 197.399 10.3746C197.374 10.3495 197.374 10.3495 197.348 10.3243C197.323 10.3243 197.298 10.2992 197.273 10.3243C197.248 10.3243 197.198 10.3495 197.172 10.3998C197.122 10.4501 197.097 10.4753 197.047 10.5507C196.996 10.601 196.971 10.6514 196.971 10.6514L196.946 10.6765L196.921 10.7017L196.896 10.7268C196.845 10.7771 196.795 10.8275 196.77 10.8526C196.745 10.8778 196.694 10.9281 196.644 10.9784C196.594 11.0287 196.543 11.0539 196.518 11.079C196.493 11.1042 196.443 11.1042 196.392 11.1042C196.342 11.1042 196.317 11.079 196.292 11.0287C196.267 10.9784 196.242 10.9281 196.216 10.8275C196.216 10.8023 196.216 10.7268 196.191 10.6262C196.191 10.5256 196.191 10.4501 196.191 10.4249C196.191 10.4249 196.166 10.4249 196.141 10.4501C196.116 10.4753 196.091 10.5004 196.065 10.5004C196.04 10.5256 196.015 10.5507 195.965 10.5759C195.94 10.601 195.915 10.6262 195.889 10.6514C195.864 10.6765 195.864 10.6765 195.839 10.6765C195.688 10.8023 195.537 10.9281 195.361 11.079C195.336 11.1042 195.311 11.1042 195.286 11.1042C195.26 11.1042 195.235 11.079 195.26 11.0539C195.286 10.9532 195.336 10.8023 195.411 10.601C195.487 10.3998 195.537 10.2488 195.562 10.1482C195.562 10.1231 195.613 10.0979 195.638 10.0979C195.688 10.0979 195.688 10.1231 195.688 10.1482V10.1734C195.638 10.3243 195.562 10.5759 195.437 10.8778C195.562 10.7771 195.663 10.7017 195.738 10.6262C195.738 10.6262 195.789 10.601 195.814 10.5507C195.864 10.5004 195.889 10.4753 195.94 10.4501C195.965 10.4249 196.015 10.3998 196.065 10.3746C196.116 10.3495 196.141 10.3495 196.191 10.3495C196.242 10.3495 196.292 10.3746 196.292 10.4249C196.317 10.4753 196.317 10.5004 196.317 10.5759C196.317 10.6262 196.317 10.6765 196.317 10.7268C196.342 10.8778 196.367 10.9532 196.367 10.9532C196.392 10.9784 196.418 11.0036 196.418 11.0036C196.418 11.0036 196.443 11.0036 196.468 10.9784C196.493 10.9532 196.493 10.9281 196.518 10.9281C196.543 10.9029 196.594 10.8778 196.619 10.8526C196.644 10.8275 196.694 10.7771 196.72 10.7268C196.77 10.6765 196.795 10.6514 196.795 10.6262C196.82 10.601 196.82 10.601 196.845 10.5759C196.87 10.5507 196.896 10.5256 196.921 10.5004C196.946 10.4753 196.971 10.4501 196.996 10.4249C197.021 10.3998 197.047 10.3746 197.072 10.3495C197.097 10.3243 197.122 10.3243 197.147 10.2992C197.172 10.274 197.198 10.2488 197.223 10.2488C197.248 10.2488 197.273 10.2237 197.298 10.2237C197.323 10.2237 197.348 10.2237 197.374 10.2237C197.399 10.2237 197.424 10.2488 197.449 10.2488C197.474 10.274 197.499 10.274 197.525 10.3243C197.55 10.3495 197.575 10.3998 197.575 10.4249C197.6 10.4501 197.625 10.5256 197.65 10.6514C197.676 10.7771 197.701 10.8526 197.751 10.9029C197.801 10.9784 197.852 11.0287 197.952 11.0539C198.028 11.079 198.103 11.079 198.204 11.079C198.304 11.079 198.38 11.0539 198.455 11.0287C198.531 11.0036 198.606 10.9784 198.682 10.9281C198.908 10.7771 199.135 10.6262 199.336 10.4249Z" fill="black"/>
<path d="M192.746 11.9091C192.696 11.884 192.671 11.8588 192.645 11.8337C192.62 11.8085 192.595 11.7582 192.57 11.7079C192.545 11.6576 192.545 11.6072 192.52 11.5569C192.494 11.4815 192.494 11.4311 192.494 11.3808C192.494 11.3305 192.494 11.2802 192.469 11.2047C192.444 10.9532 192.444 10.7016 192.469 10.45C192.494 10.1984 192.545 9.89655 192.595 9.59466C192.645 9.34309 192.696 9.06636 192.771 8.81479C192.847 8.56321 192.922 8.23617 193.048 7.88397C193.148 7.53177 193.224 7.28019 193.274 7.10409C193.274 7.10409 193.274 7.07894 193.299 7.05378C193.299 7.02862 193.325 7.00346 193.325 6.97831V6.92799C193.325 6.87768 193.325 6.85252 193.325 6.82736C193.325 6.80221 193.299 6.77705 193.274 6.75189C193.249 6.72673 193.224 6.70158 193.174 6.70158H193.149C193.149 6.70158 193.123 6.70158 193.098 6.70158C193.073 6.70158 193.048 6.70158 192.998 6.72673C192.972 6.75189 192.947 6.75189 192.947 6.75189C192.922 6.75189 192.922 6.77705 192.897 6.80221C192.872 6.82736 192.872 6.82736 192.847 6.85252L192.771 6.92799C192.645 7.05378 192.444 7.30535 192.193 7.6324C191.79 8.13554 191.287 8.81479 190.658 9.69529C190.582 9.79592 190.507 9.9217 190.381 10.0978C190.608 9.41856 190.784 8.76447 190.91 8.1607C190.91 8.13554 190.935 8.08523 190.96 7.9846C190.985 7.88397 191.01 7.8085 191.01 7.75818C191.01 7.70787 191.035 7.6324 191.06 7.53177C191.086 7.43114 191.086 7.35567 191.086 7.28019C191.086 7.20472 191.086 7.12925 191.086 7.05378C191.086 6.95315 191.086 6.87768 191.06 6.80221C191.035 6.72674 191.01 6.65126 190.985 6.60095C190.935 6.50032 190.834 6.39969 190.733 6.37453C190.658 6.34938 190.608 6.32422 190.532 6.32422C190.482 6.32422 190.457 6.32422 190.406 6.34938C190.306 6.37453 190.205 6.39969 190.13 6.47516C190.029 6.52548 189.954 6.60095 189.903 6.67642C189.828 6.75189 189.777 6.85252 189.727 6.97831C189.677 7.10409 189.626 7.22988 189.601 7.35567C189.576 7.48145 189.576 7.60724 189.576 7.73302C189.576 7.85881 189.626 7.9846 189.702 8.08523C189.777 8.18585 189.878 8.28648 190.029 8.3368C190.054 8.3368 190.079 8.3368 190.079 8.3368C190.13 8.3368 190.155 8.31164 190.205 8.28648C190.255 8.23617 190.255 8.18585 190.255 8.1607C190.255 8.13554 190.23 8.08523 190.155 8.06007C190.079 8.03491 190.004 7.9846 189.954 7.90912C189.853 7.75818 189.853 7.55692 189.928 7.28019C190.004 7.05378 190.104 6.87768 190.255 6.72673C190.331 6.65126 190.406 6.62611 190.482 6.62611C190.532 6.62611 190.557 6.65126 190.608 6.67642C190.633 6.70158 190.683 6.75189 190.708 6.80221C190.733 6.85252 190.759 6.90283 190.759 6.97831C190.759 7.05378 190.759 7.12925 190.759 7.20472C190.759 7.28019 190.759 7.35567 190.733 7.45629C190.708 7.55692 190.708 7.6324 190.683 7.68271C190.683 7.73302 190.658 7.8085 190.633 7.90912C190.608 8.00975 190.608 8.08523 190.608 8.08523C190.432 8.96573 190.13 9.97202 189.702 11.1041C189.677 11.1544 189.702 11.2047 189.702 11.2299C189.727 11.255 189.752 11.2802 189.828 11.2802C189.928 11.2802 189.979 11.2299 190.004 11.2047C190.809 10.0475 191.538 9.01604 192.167 8.21101C192.419 7.88397 192.62 7.60724 192.796 7.43114C192.796 7.43114 192.821 7.40598 192.847 7.35567C192.821 7.45629 192.796 7.55692 192.771 7.6324C192.746 7.73302 192.721 7.83365 192.696 7.95944C192.671 8.06007 192.645 8.13554 192.645 8.13554C192.419 8.8651 192.293 9.54435 192.193 10.0978C192.193 10.123 192.193 10.1481 192.167 10.1733C192.167 10.2487 192.142 10.3242 192.142 10.3745C192.142 10.4248 192.117 10.5003 192.117 10.601C192.117 10.7016 192.092 10.7771 192.092 10.8525C192.092 10.928 192.092 11.0035 192.092 11.1041C192.092 11.2047 192.092 11.3054 192.117 11.3808C192.117 11.4563 192.142 11.5318 192.167 11.6072C192.193 11.7079 192.218 11.7833 192.268 11.8337C192.293 11.9091 192.343 11.9594 192.419 12.0098C192.469 12.0601 192.545 12.1104 192.62 12.1355C192.645 12.1355 192.645 12.1355 192.671 12.1355C192.721 12.1355 192.746 12.1104 192.796 12.0852C192.847 12.0349 192.872 11.9846 192.847 11.9594C192.821 11.9846 192.796 11.9343 192.746 11.9091Z" fill="black"/>
<path d="M202.08 10.2739C202.055 10.2487 202.03 10.2487 202.004 10.2487C201.954 10.2487 201.929 10.2739 201.904 10.299C201.677 10.5003 201.401 10.6512 201.124 10.777C201.023 10.8273 200.897 10.8525 200.747 10.8776C200.621 10.9028 200.47 10.9279 200.319 10.9279H200.294C200.168 10.9279 200.042 10.9028 199.916 10.8776C199.791 10.8525 199.69 10.777 199.589 10.7015L199.564 10.6764C199.614 10.6764 199.665 10.6764 199.715 10.6764C199.916 10.6764 200.118 10.6261 200.294 10.5254C200.319 10.5003 200.344 10.5003 200.369 10.4751C200.394 10.45 200.42 10.4248 200.445 10.3996C200.47 10.3745 200.495 10.3493 200.52 10.3242C200.545 10.299 200.57 10.2487 200.57 10.2235C200.596 10.1732 200.596 10.1481 200.57 10.0978C200.57 10.0474 200.545 10.0223 200.495 9.97197C200.42 9.8965 200.319 9.87134 200.218 9.87134H200.193C200.067 9.87134 199.967 9.8965 199.841 9.94681C199.715 9.99712 199.614 10.0474 199.514 10.1229C199.413 10.1984 199.338 10.2487 199.287 10.3242C199.262 10.3493 199.262 10.3745 199.237 10.3745C199.061 10.5757 198.86 10.7267 198.608 10.8273C198.533 10.8525 198.457 10.8776 198.382 10.9028C198.306 10.9279 198.231 10.9531 198.155 10.9531C198.13 10.9531 198.105 10.9531 198.08 10.9531C198.03 10.9531 197.979 10.9531 197.929 10.9279C197.879 10.9028 197.828 10.8776 197.778 10.8273C197.753 10.8022 197.728 10.7518 197.703 10.6261C197.652 10.4751 197.652 10.3996 197.627 10.3745C197.602 10.3242 197.577 10.2739 197.552 10.2487C197.526 10.1984 197.501 10.1732 197.451 10.1481C197.426 10.1229 197.401 10.1229 197.375 10.0978C197.35 10.0978 197.325 10.0726 197.3 10.0726C197.275 10.0726 197.25 10.0726 197.25 10.0726C197.225 10.0726 197.199 10.0978 197.174 10.0978C197.149 10.0978 197.099 10.1229 197.074 10.1481C197.048 10.1732 197.023 10.1984 196.998 10.1984C196.973 10.2235 196.948 10.2487 196.923 10.2739L196.847 10.3493C196.822 10.3745 196.797 10.3996 196.772 10.4248C196.747 10.45 196.721 10.4751 196.721 10.4751C196.696 10.5003 196.671 10.5254 196.646 10.5757C196.621 10.6261 196.57 10.6764 196.545 10.7015C196.52 10.7267 196.495 10.7518 196.445 10.777L196.419 10.8022C196.419 10.777 196.394 10.7267 196.394 10.6261C196.394 10.5757 196.394 10.5506 196.394 10.5003C196.394 10.4248 196.394 10.3745 196.369 10.299C196.344 10.2487 196.294 10.1732 196.168 10.1732C196.118 10.1732 196.067 10.1984 196.017 10.2235C195.967 10.2487 195.916 10.2739 195.891 10.3242C195.866 10.3493 195.816 10.3996 195.765 10.4248C195.715 10.4751 195.69 10.5003 195.69 10.5003C195.665 10.5254 195.665 10.5254 195.64 10.5506C195.64 10.5254 195.665 10.5003 195.665 10.4751C195.715 10.4248 195.715 10.3745 195.715 10.3493C195.74 10.2739 195.765 10.2235 195.791 10.1481V10.1229C195.791 10.0978 195.791 10.0474 195.765 10.0223C195.74 9.99712 195.69 9.97197 195.64 9.97197C195.514 9.97197 195.489 10.0474 195.464 10.0726L195.363 10.3493C195.212 10.4751 195.036 10.5757 194.86 10.6512C194.633 10.7518 194.432 10.8022 194.18 10.8525C194.18 10.8525 194.155 10.8525 194.13 10.8525C194.105 10.8525 193.954 10.8776 193.954 10.8776C193.929 10.8776 193.904 10.8776 193.879 10.8776H193.778C193.753 10.8776 193.728 10.8776 193.703 10.8776C193.677 10.8776 193.677 10.8776 193.652 10.8525C193.652 10.8525 193.652 10.8525 193.652 10.8273C193.652 10.8022 193.652 10.8022 193.652 10.777L193.677 10.6764C193.703 10.5506 193.778 10.4248 193.853 10.2739C193.879 10.2235 193.879 10.1732 193.853 10.1481C193.828 10.1229 193.803 10.0978 193.728 10.0726C193.677 10.0726 193.652 10.0726 193.602 10.0978C193.577 10.0726 193.552 10.0474 193.501 10.0474H193.476C193.375 10.0474 193.275 10.0978 193.124 10.1984C192.948 10.3242 192.797 10.4751 192.696 10.6512C192.621 10.8022 192.596 10.9028 192.621 11.0034C192.646 11.0537 192.671 11.1292 192.772 11.1544C192.822 11.1795 192.847 11.1795 192.897 11.1795C193.023 11.1795 193.149 11.104 193.3 10.9783C193.325 11.0286 193.35 11.0537 193.375 11.0789C193.401 11.104 193.426 11.104 193.451 11.1292C193.476 11.1544 193.526 11.1544 193.577 11.1544H193.677C193.703 11.1544 193.728 11.1544 193.778 11.1544C193.828 11.1544 193.853 11.1544 193.879 11.1544C194.181 11.1292 194.482 11.0537 194.784 10.9531C194.91 10.9028 195.036 10.8525 195.136 10.777L195.061 10.9783C195.036 11.0286 195.061 11.0789 195.061 11.0789C195.086 11.104 195.111 11.1292 195.162 11.1292H195.187C195.237 11.1292 195.287 11.104 195.313 11.0789C195.489 10.9279 195.64 10.8022 195.791 10.6764C195.816 10.6764 195.816 10.6512 195.841 10.6261C195.866 10.6009 195.891 10.5757 195.916 10.5757L195.992 10.5254V10.5506C195.992 10.7015 196.017 10.7267 196.017 10.7518C196.042 10.8525 196.067 10.9279 196.092 10.9783C196.143 11.0537 196.218 11.0789 196.269 11.0789C196.319 11.0789 196.369 11.0537 196.419 11.0537C196.47 11.0286 196.52 11.0034 196.596 10.9279C196.646 10.8776 196.696 10.8273 196.721 10.8022C196.747 10.777 196.797 10.7267 196.847 10.6512C196.847 10.6261 196.872 10.6261 196.872 10.6261L196.897 10.6009C196.897 10.6009 196.897 10.5757 196.923 10.5757C196.923 10.5506 196.973 10.5254 196.998 10.4751C197.048 10.4248 197.074 10.3745 197.124 10.3493C197.174 10.3242 197.174 10.299 197.199 10.299C197.199 10.299 197.225 10.299 197.225 10.3242C197.225 10.3242 197.25 10.3493 197.25 10.3745C197.25 10.3996 197.275 10.4248 197.275 10.45L197.3 10.5506C197.3 10.6009 197.325 10.6261 197.325 10.6261C197.375 10.8022 197.451 10.9279 197.526 11.0034C197.627 11.0789 197.753 11.1292 197.929 11.1292C198.206 11.1292 198.457 11.0537 198.734 10.9279C198.885 10.8525 199.011 10.7518 199.136 10.6764C199.162 10.7015 199.187 10.7518 199.212 10.777C199.262 10.8273 199.313 10.8525 199.388 10.9028C199.438 10.9279 199.514 10.9531 199.564 10.9783C199.614 11.0034 199.69 11.0286 199.765 11.0286C199.841 11.0537 199.891 11.0537 199.942 11.0537C199.992 11.0537 200.042 11.0789 200.092 11.0789C200.168 11.0789 200.243 11.104 200.319 11.104C200.57 11.104 200.822 11.0537 201.074 10.9531C201.401 10.8273 201.703 10.6261 202.004 10.3996C202.055 10.3493 202.055 10.3242 202.055 10.299C202.155 10.3493 202.13 10.299 202.08 10.2739ZM199.816 10.2487C200.017 10.1481 200.092 10.1229 200.143 10.1229C200.168 10.1229 200.168 10.1229 200.168 10.1229C200.218 10.1481 200.218 10.1732 200.218 10.1732C200.218 10.1984 200.218 10.1984 200.193 10.1984C200.193 10.1984 200.168 10.2235 200.143 10.2235C200.118 10.2487 200.092 10.2487 200.067 10.2739C200.042 10.2739 200.042 10.299 200.017 10.299C199.916 10.3493 199.816 10.3745 199.69 10.3745C199.665 10.3745 199.614 10.3745 199.589 10.3745C199.665 10.3242 199.74 10.299 199.816 10.2487ZM193.149 10.8525L193.225 10.9279L193.149 10.8525L193.099 10.9028L193.048 10.9531L193.023 10.9783C193.023 10.9531 193.048 10.9279 193.048 10.9028L193.074 10.8776C193.124 10.777 193.199 10.6764 193.275 10.6009C193.35 10.5254 193.426 10.4751 193.476 10.4751C193.375 10.6261 193.25 10.7518 193.149 10.8525Z" fill="black"/>
<path d="M201.951 10.3495C201.977 10.3244 202.002 10.3244 202.052 10.3495C202.077 10.3747 202.077 10.3999 202.052 10.425C201.775 10.6514 201.473 10.8275 201.146 10.9533C200.819 11.0791 200.517 11.1294 200.215 11.0791C200.165 11.0791 200.115 11.054 200.065 11.054C200.014 11.054 199.964 11.0288 199.888 11.0288C199.813 11.0036 199.763 11.0036 199.687 10.9785C199.637 10.9533 199.561 10.9282 199.511 10.903C199.461 10.8779 199.41 10.8527 199.36 10.8024C199.31 10.7772 199.285 10.7269 199.26 10.6766C199.234 10.6263 199.234 10.576 199.234 10.5256C199.234 10.4753 199.285 10.425 199.31 10.3495C199.36 10.2992 199.41 10.2238 199.511 10.1734C199.612 10.098 199.712 10.0477 199.813 9.99735C199.914 9.94703 200.039 9.92188 200.14 9.92188C200.241 9.92188 200.316 9.94703 200.392 9.99735C200.417 10.0225 200.442 10.0477 200.442 10.0728C200.442 10.098 200.442 10.1231 200.442 10.1483C200.442 10.1734 200.417 10.1986 200.392 10.2238C200.366 10.2489 200.341 10.2741 200.316 10.2992C200.291 10.3244 200.266 10.3495 200.241 10.3495C200.216 10.3747 200.19 10.3747 200.165 10.3999C199.914 10.5508 199.637 10.576 199.335 10.5005C199.335 10.576 199.36 10.6263 199.436 10.7017C199.536 10.7772 199.637 10.8527 199.788 10.903C199.939 10.9533 200.09 10.9533 200.215 10.9533C200.366 10.9533 200.517 10.9282 200.643 10.903C200.794 10.8779 200.92 10.8275 201.021 10.7772C201.423 10.7269 201.7 10.5508 201.951 10.3495ZM199.788 10.1734C199.612 10.2489 199.511 10.3495 199.461 10.4502C199.687 10.5005 199.914 10.5005 200.09 10.425C200.115 10.425 200.14 10.3999 200.14 10.3999C200.165 10.3999 200.19 10.3747 200.215 10.3495C200.241 10.3244 200.266 10.2992 200.291 10.2992C200.316 10.2741 200.316 10.2489 200.316 10.2238C200.316 10.1986 200.316 10.1734 200.316 10.1483C200.291 10.1231 200.266 10.098 200.241 10.0728C200.165 10.0225 200.014 10.0477 199.788 10.1734Z" fill="black"/>
<path d="M200.369 16.9155C199.464 16.9155 198.533 16.7897 197.627 16.4878C194.105 15.2551 192.671 16.84 192.671 16.8651L192.395 16.6136C192.47 16.5381 194.005 14.8274 197.753 16.1356C201.325 17.3934 205.577 15.3809 205.627 15.3557L205.778 15.6828C205.627 15.7582 203.162 16.9155 200.369 16.9155Z" fill="black"/>
<path d="M194.457 23.1546L194.23 22.8779C194.432 22.727 199.262 18.9534 210.608 22.1232L210.507 22.4754C199.363 19.3559 194.507 23.1295 194.457 23.1546Z" fill="black"/>
<path d="M207.089 26.9783C206.334 26.9783 205.403 26.7519 204.372 26.0223C201.931 24.2865 198.837 26.9028 198.787 26.928L198.535 26.6513C198.56 26.6261 201.906 23.8085 204.573 25.7204C207.013 27.4563 208.85 26.0978 208.875 26.0978L209.101 26.3997C209.101 26.3997 208.321 26.9783 207.089 26.9783Z" fill="black"/>
<path d="M210.585 1.56962C210.51 1.56962 210.434 1.51931 210.409 1.41868C210.384 1.31805 210.459 1.21742 210.56 1.19226C210.661 1.1671 220.975 -0.89579 229.629 0.462701C229.73 0.487859 229.805 0.56333 229.78 0.663959C229.755 0.764588 229.68 0.84006 229.579 0.814903C221 -0.518431 210.736 1.51931 210.636 1.54446C210.61 1.56962 210.585 1.56962 210.585 1.56962Z" fill="black"/>
<path d="M215.085 13.0917C215.009 13.0917 214.934 13.0413 214.909 12.9407C214.884 12.8401 214.934 12.7395 215.035 12.7143C215.211 12.664 219.16 11.708 221.601 11.9596C221.701 11.9596 221.777 12.0602 221.777 12.1608C221.777 12.2615 221.676 12.3369 221.575 12.3369C219.185 12.0854 215.16 13.0665 215.135 13.0917C215.135 13.0917 215.11 13.0917 215.085 13.0917Z" fill="black"/>
<path d="M218.355 31.2803C218.279 31.2803 218.204 31.23 218.179 31.1294C218.154 31.0287 218.229 30.9281 218.33 30.9029C218.959 30.7772 234.078 27.5822 238.858 28.4375C238.959 28.4627 239.034 28.5633 239.009 28.6388C238.984 28.7394 238.883 28.8149 238.808 28.7897C234.103 27.9344 218.581 31.2048 218.43 31.2551C218.38 31.2803 218.355 31.2803 218.355 31.2803Z" fill="black"/>
<path d="M209.878 36.9159C209.827 36.9159 209.777 36.8907 209.752 36.8656C208.62 35.7838 204.947 35.9851 204.897 35.9851C204.796 35.9851 204.72 35.9096 204.695 35.809C204.695 35.7083 204.771 35.6329 204.871 35.6077C205.022 35.6077 208.746 35.4065 210.003 36.5888C210.079 36.6643 210.079 36.7649 210.003 36.8404C209.978 36.8907 209.928 36.9159 209.878 36.9159Z" fill="black"/>
<path d="M209.854 34.7771C209.854 34.7771 210.231 36.3872 208.168 35.8337L209.904 36.6136C209.929 36.6136 210.533 35.6073 209.854 34.7771Z" fill="black"/>
<path d="M81.1729 99.8834C81.4748 100.185 81.7264 100.512 81.978 100.865C82.9339 102.298 83.2861 104.034 82.9591 105.72C82.6824 107.104 81.9025 108.286 80.7453 109.066C79.588 109.846 78.1792 110.122 76.8207 109.871C74.5063 109.418 73.022 107.179 73.4497 104.865C73.827 102.978 75.6383 101.77 77.5251 102.122C79.0597 102.424 80.066 103.909 79.7641 105.443C79.5125 106.701 78.2798 107.531 77.022 107.28C76.5188 107.179 76.066 106.902 75.7893 106.449C75.5125 106.022 75.3868 105.519 75.4874 104.99C75.6635 104.11 76.4937 103.556 77.3742 103.732C77.7264 103.808 78.0283 104.009 78.2295 104.311C78.4308 104.613 78.5063 104.965 78.4308 105.317L77.8019 105.192C77.827 105.015 77.8019 104.814 77.7012 104.663C77.6006 104.512 77.4245 104.387 77.2484 104.361C76.7201 104.261 76.2169 104.613 76.1163 105.116C76.0408 105.443 76.1163 105.795 76.3176 106.097C76.5188 106.374 76.7956 106.575 77.1478 106.651C78.0786 106.827 78.9591 106.223 79.1352 105.317C79.3616 104.135 78.5817 102.978 77.3993 102.726C75.8647 102.424 74.3805 103.431 74.0786 104.965C73.7012 106.927 74.9842 108.839 76.9465 109.217C78.1541 109.443 79.3868 109.217 80.393 108.512C81.4245 107.833 82.1037 106.776 82.3302 105.569C82.632 104.034 82.305 102.475 81.4497 101.192C80.5691 99.9086 79.261 99.0281 77.7264 98.7262C73.7264 97.9463 69.8522 100.563 69.0723 104.537L68.4434 104.412C68.8459 102.324 70.0534 100.487 71.8396 99.3048C73.6257 98.1224 75.739 97.6696 77.8522 98.0972C79.11 98.374 80.2673 99.0029 81.1729 99.8834Z" fill="#FF978B"/>
<path d="M65.6001 79.8337C65.2228 80.0852 64.8203 80.2362 64.3926 80.2865C64.8957 80.1355 65.3989 79.9091 65.902 79.5821C65.9523 79.5569 66.0026 79.5318 66.0278 79.4814C65.902 79.6072 65.7511 79.733 65.6001 79.8337Z" fill="#FF978B"/>
<path d="M71.7411 76.1857C71.7411 76.714 71.6908 77.2675 71.5901 77.7958C71.1876 79.8838 69.9801 81.7203 68.1939 82.9027C67.1121 83.6323 65.8794 84.0096 64.5964 84.0096C64.1687 84.0096 63.7662 83.9593 63.3386 83.8838C61.653 83.5568 60.1687 82.5757 59.2128 81.1417C58.7599 80.4625 58.4832 79.7077 58.3574 78.9279C58.609 79.104 58.8606 79.2801 59.1121 79.4562C59.2379 79.9342 59.4392 80.387 59.7411 80.7895C60.6216 82.0725 61.9298 82.953 63.4643 83.2549C64.9989 83.5568 66.5587 83.2298 67.8417 82.3744C70.1059 80.865 71.2379 78.2989 71.087 75.7581C71.3134 75.8838 71.5147 76.0348 71.7411 76.1857Z" fill="#FF978B"/>
<path d="M62.8065 100.035C62.7813 100.287 62.7562 100.538 62.7059 100.815C61.8254 101.243 60.8694 101.469 59.8882 101.469C59.4606 101.469 59.0581 101.419 58.6304 101.343C56.9197 101.016 55.4606 100.035 54.5046 98.601C53.7247 97.4438 53.448 96.035 53.6996 94.6765C53.9763 93.2929 54.7562 92.1105 55.9134 91.3306C57.8505 90.0224 60.5172 90.5507 61.8254 92.4878C62.882 94.0727 62.4794 96.2363 60.8694 97.2929C59.5612 98.1734 57.8002 97.8212 56.9197 96.513C56.1901 95.4564 56.492 93.9973 57.5486 93.2677C57.9763 92.991 58.4794 92.8652 59.0077 92.9658C59.5109 93.0665 59.9637 93.3432 60.2404 93.796C60.7436 94.5256 60.5423 95.5319 59.8128 96.035C59.5109 96.2363 59.1587 96.3117 58.8065 96.2363C58.4543 96.1608 58.1524 95.9595 57.9511 95.6577L58.4794 95.3055C58.5801 95.4564 58.7562 95.5822 58.9323 95.6073C59.1084 95.6325 59.3096 95.6073 59.4606 95.5067C59.9134 95.2048 60.014 94.6011 59.7121 94.1482C59.5109 93.8715 59.2342 93.6702 58.882 93.5948C58.5549 93.5193 58.2027 93.5948 57.9008 93.796C57.1209 94.3243 56.9197 95.3809 57.448 96.1608C58.1272 97.1671 59.4857 97.4438 60.492 96.7646C61.775 95.8841 62.1272 94.1231 61.2719 92.84C60.165 91.1797 57.9008 90.752 56.2404 91.8589C55.209 92.5382 54.5298 93.5948 54.3033 94.8023C54.0769 96.0099 54.3033 97.2426 55.0077 98.2488C55.8882 99.5319 57.1964 100.412 58.731 100.714C60.165 100.991 61.5989 100.739 62.8065 100.035Z" fill="#FF978B"/>
<path d="M41.9531 81.1165C42.1292 80.9656 42.2802 80.8398 42.4563 80.714C43.1858 81.2926 44.2424 81.3681 45.0475 80.8146C46.0286 80.1606 46.4563 78.9782 46.2299 77.8964C46.4311 77.7706 46.6072 77.6448 46.7833 77.519C47.1858 78.9278 46.6575 80.4876 45.3745 81.3429C44.3179 82.0725 42.9091 81.9467 41.9531 81.1165Z" fill="#FF978B"/>
<path d="M51.413 79.2802C51.0105 81.3682 49.803 83.2047 48.0168 84.3871C46.9351 85.1166 45.7024 85.494 44.4193 85.494C43.9917 85.494 43.5891 85.4437 43.1615 85.3682C41.7275 85.0915 40.4445 84.3368 39.5137 83.255C39.6646 83.1041 39.8156 82.9531 39.9917 82.8273C40.847 83.8085 41.9791 84.4877 43.2873 84.7393C44.8218 85.0412 46.3816 84.7141 47.6646 83.8588C50.5325 81.9468 51.6143 78.3494 50.4822 75.255C50.6835 75.1544 50.8596 75.0538 51.0608 74.9531C51.564 76.3368 51.6898 77.8211 51.413 79.2802Z" fill="#FF978B"/>
<path d="M35.8641 100.915C36.166 100.613 36.493 100.361 36.8452 100.11C38.2792 99.1539 40.0151 98.8017 41.7006 99.1287C43.0842 99.4054 44.2666 100.185 45.0465 101.343C45.8264 102.5 46.1031 103.909 45.8515 105.267C45.3987 107.582 43.1597 109.066 40.8452 108.638C38.9585 108.261 37.7509 106.449 38.1031 104.563C38.405 103.028 39.8893 102.022 41.4239 102.324C42.6817 102.575 43.5119 103.808 43.2603 105.066C43.1597 105.569 42.883 106.022 42.4302 106.299C42.0025 106.575 41.4993 106.701 40.971 106.6C40.0905 106.424 39.5371 105.594 39.7132 104.714C39.7886 104.361 39.9899 104.06 40.2918 103.858C40.5937 103.657 40.9459 103.582 41.2981 103.657L41.1723 104.286C40.9962 104.261 40.7949 104.286 40.644 104.387C40.493 104.487 40.3673 104.663 40.3421 104.839C40.2415 105.368 40.5937 105.871 41.0968 105.971C41.4239 106.047 41.7761 105.971 42.078 105.77C42.3547 105.569 42.5559 105.292 42.6314 104.94C42.8075 104.009 42.2037 103.129 41.2981 102.953C40.1157 102.726 38.9585 103.506 38.7069 104.688C38.405 106.223 39.4113 107.707 40.9459 108.009C42.9081 108.387 44.8201 107.104 45.1974 105.141C45.4239 103.934 45.1975 102.701 44.493 101.695C43.8138 100.663 42.7572 99.984 41.5496 99.7576C40.0151 99.4557 38.4553 99.7828 37.1723 100.638C35.8893 101.519 35.0088 102.827 34.7069 104.361C33.927 108.361 36.5434 112.236 40.5182 113.015L40.3924 113.644C38.3044 113.242 36.4679 112.034 35.2855 110.248C34.1031 108.462 33.6503 106.349 34.0779 104.236C34.3547 102.953 34.9585 101.821 35.8641 100.915Z" fill="#FF978B"/>
<path d="M86.254 125.494C86.2037 125.795 86.1282 126.097 86.0779 126.374C85.0465 127.003 83.9144 127.33 82.732 127.33C82.3043 127.33 81.9018 127.28 81.4741 127.204C79.7886 126.877 78.3043 125.896 77.3483 124.462C76.5685 123.305 76.2917 121.896 76.5433 120.538C76.82 119.154 77.5999 117.972 78.7571 117.192C80.6943 115.884 83.3609 116.412 84.6691 118.349C85.7257 119.934 85.3232 122.097 83.7383 123.154C82.4301 124.034 80.6691 123.682 79.7886 122.374C79.059 121.292 79.3609 119.858 80.4175 119.129C80.8452 118.852 81.3735 118.751 81.8767 118.827C82.3798 118.928 82.8075 119.204 83.1094 119.657C83.6125 120.387 83.4112 121.393 82.6817 121.896C82.3798 122.097 82.0276 122.173 81.6754 122.097C81.3232 122.022 81.0213 121.821 80.82 121.519L81.3483 121.167C81.449 121.317 81.6251 121.443 81.8012 121.468C81.9773 121.494 82.1785 121.468 82.3295 121.368C82.7823 121.066 82.8829 120.462 82.5811 120.009C82.3798 119.733 82.1031 119.531 81.7509 119.456C81.4238 119.38 81.0716 119.456 80.7697 119.657C79.9899 120.185 79.7886 121.242 80.3169 122.022C80.9961 123.028 82.3546 123.305 83.3609 122.626C84.6439 121.745 84.9962 119.984 84.1408 118.701C83.0339 117.041 80.7697 116.613 79.1094 117.72C78.0779 118.399 77.3987 119.456 77.1471 120.663C76.9207 121.871 77.1471 123.104 77.8515 124.11C78.732 125.393 80.0402 126.273 81.5748 126.575C83.1094 126.877 84.6691 126.55 85.9521 125.695C86.0779 125.619 86.1534 125.544 86.254 125.494Z" fill="#FF978B"/>
<path d="M56.5953 135.154C56.1676 135.154 55.7651 135.104 55.3374 135.028C53.6519 134.701 52.1676 133.72 51.2116 132.286C50.4318 131.129 50.155 129.72 50.4066 128.362C50.6833 126.978 51.4632 125.796 52.6204 125.016C54.5575 123.708 57.2242 124.236 58.5324 126.173C59.589 127.758 59.1865 129.921 57.5764 130.978C56.2682 131.859 54.5072 131.506 53.6267 130.198C52.8972 129.142 53.199 127.682 54.2557 126.953C54.6833 126.676 55.1865 126.55 55.7148 126.651C56.2179 126.752 56.6707 127.054 56.9475 127.481C57.4506 128.211 57.2494 129.217 56.5198 129.72C56.2179 129.921 55.8657 129.997 55.5135 129.921C55.1613 129.846 54.8594 129.645 54.6582 129.343L55.1865 128.991C55.2871 129.142 55.4632 129.267 55.6393 129.293C55.8154 129.318 56.0167 129.293 56.1676 129.192C56.6204 128.89 56.7211 128.286 56.4443 127.833C56.2431 127.557 55.9663 127.355 55.6141 127.28C55.2871 127.204 54.9349 127.28 54.633 127.481C53.8531 128.009 53.6519 129.066 54.1802 129.846C54.8594 130.852 56.2179 131.129 57.2242 130.45C58.5324 129.569 58.8594 127.808 58.0041 126.525C56.8972 124.865 54.633 124.437 52.9726 125.544C51.9412 126.223 51.2619 127.28 51.0355 128.487C50.8091 129.695 51.0355 130.928 51.7399 131.934C52.6204 133.217 53.9286 134.098 55.4632 134.399C56.9978 134.701 58.5575 134.374 59.8406 133.519C63.2116 131.255 64.1173 126.651 61.8531 123.28L62.3814 122.928C63.5638 124.714 64.0167 126.827 63.589 128.94C63.1865 131.028 61.9789 132.865 60.1928 134.047C59.111 134.777 57.8783 135.154 56.5953 135.154Z" fill="#FF978B"/>
<path d="M80.2659 142.5C80.769 143.23 80.5678 144.236 79.8382 144.739C79.5363 144.94 79.1841 145.016 78.8319 144.94C78.4797 144.865 78.1779 144.664 77.9766 144.362L78.5049 144.01C78.6055 144.16 78.7816 144.286 78.9577 144.311C79.1338 144.337 79.3351 144.311 79.486 144.211C79.9389 143.909 80.0395 143.305 79.7376 142.877C79.5363 142.601 79.2596 142.399 78.9074 142.324C78.5804 142.249 78.2282 142.324 77.9263 142.525C77.1464 143.054 76.9452 144.11 77.4735 144.89C78.0269 145.72 79.0584 146.047 79.9389 145.771C79.8382 146.022 79.7376 146.249 79.637 146.475C78.6055 146.601 77.5489 146.148 76.9451 145.242C76.2156 144.186 76.5175 142.727 77.5741 141.997C78.0018 141.72 78.5301 141.594 79.0332 141.695C79.5363 141.771 79.964 142.047 80.2659 142.5Z" fill="#FF978B"/>
<path d="M81.7755 141.116C81.6748 141.368 81.5742 141.645 81.4988 141.896C81.4484 141.77 81.373 141.644 81.2975 141.544C80.1906 139.883 77.9264 139.456 76.266 140.563C75.2346 141.242 74.5554 142.299 74.3038 143.506C74.2032 144.085 74.178 144.663 74.2786 145.217C74.0522 145.141 73.8258 145.041 73.5994 144.965C73.5491 144.437 73.5742 143.934 73.6749 143.406C73.9516 142.022 74.7315 140.839 75.8887 140.06C77.8509 138.701 80.4673 139.204 81.7755 141.116Z" fill="#FF978B"/>
<path d="M58.9342 144.79C57.3745 144.79 55.8147 144.664 54.2801 144.412C51.8147 144.01 49.5506 143.28 47.4877 142.224C41.8776 139.331 37.777 134.023 35.3367 126.425C35.06 125.595 34.8084 124.714 34.582 123.784L34.8336 123.758C39.4625 123.406 53.9028 121.821 58.7581 116.06C58.2298 117.897 57.8525 119.23 57.8022 119.909C57.6764 121.796 57.3996 125.343 61.45 127.155C62.0789 127.431 62.8085 127.683 63.6135 127.859C64.1166 127.985 64.7204 128.035 65.4248 128.035C67.689 128.035 70.8336 127.406 74.255 126.224C80.3934 124.136 88.7204 119.834 92.0412 114.551C93.8776 111.658 95.7644 109.117 97.6764 107.004C98.0286 106.802 99.4374 106.098 101.098 105.419C101.878 105.092 102.607 104.84 103.286 104.639C104.419 104.287 105.349 104.111 106.079 104.111C107.06 104.111 107.613 104.412 107.79 105.041C108.142 106.324 107.941 107.205 107.211 107.683L107.06 107.784L107.085 107.96C107.161 108.664 107.06 109.243 106.758 109.695L106.708 109.746V109.821C106.607 110.677 106.28 111.683 105.978 112.085C105.601 112.589 105.098 112.966 104.469 113.243C104.393 113.268 104.318 113.293 104.268 113.318L103.991 113.419L104.091 113.695C104.117 113.746 104.142 113.821 104.167 113.872C103.588 115.255 101.928 115.708 101.903 115.708L101.802 115.733L101.752 115.834C100.771 117.444 95.9405 120.01 95.8902 120.035L95.8147 120.06L95.7644 120.136C95.7393 120.186 91.9154 126.35 85.5254 132.438C79.6135 138.048 70.255 144.714 59.06 144.765L58.9342 144.79Z" fill="white"/>
<path d="M106.08 104.387C107.312 104.387 107.463 104.916 107.513 105.117C107.841 106.274 107.69 107.054 107.061 107.456L106.759 107.658L106.809 108.01C106.885 108.639 106.784 109.167 106.532 109.544L106.457 109.67L106.432 109.796C106.331 110.702 106.004 111.607 105.752 111.934C105.425 112.387 104.947 112.739 104.344 113.016C104.268 113.041 104.218 113.066 104.142 113.092L103.589 113.293L103.79 113.821C103.79 113.846 103.815 113.871 103.815 113.897C103.237 115.054 101.803 115.482 101.803 115.482L101.576 115.532L101.451 115.733C100.671 117.016 97.0229 119.129 95.6896 119.834L95.5638 119.909L95.4883 120.035C95.4632 120.085 91.6644 126.224 85.2745 132.287C81.5261 135.834 77.6519 138.651 73.7273 140.689C68.8468 143.205 63.8909 144.513 59.0103 144.538H58.9097C57.3751 144.538 55.8154 144.412 54.3059 144.161C51.8909 143.758 49.6267 143.054 47.589 141.997C42.0544 139.154 38.0041 133.897 35.5638 126.375C35.3374 125.645 35.111 124.865 34.8846 124.085C39.3877 123.733 52.5953 122.274 58.1047 117.117C57.7273 118.425 57.5009 119.381 57.4506 119.934C57.3248 121.771 57.0481 125.57 61.2745 127.456C61.9286 127.758 62.6833 127.985 63.5135 128.186C64.0418 128.312 64.6707 128.362 65.3751 128.362C67.6896 128.362 70.8594 127.708 74.3059 126.551C80.4946 124.463 88.8971 120.11 92.2431 114.752C94.0544 111.884 95.9412 109.368 97.828 107.28C98.2305 107.079 99.589 106.375 101.174 105.721C101.954 105.393 102.658 105.142 103.337 104.941C104.469 104.563 105.375 104.387 106.08 104.387ZM106.08 103.834C105.249 103.834 104.243 104.06 103.212 104.362C102.457 104.588 101.702 104.865 100.998 105.167C99.1361 105.922 97.6015 106.752 97.5009 106.802C95.9663 108.488 93.9789 110.953 91.7902 114.4C88.721 119.255 80.9978 123.632 74.1298 125.947C70.7839 127.079 67.6644 127.733 65.4003 127.733C64.7462 127.733 64.1676 127.683 63.6644 127.557C62.8342 127.381 62.155 127.129 61.5512 126.878C57.8783 125.217 57.9034 122.148 58.0544 119.909C58.1047 119.054 58.7588 116.966 59.5638 114.224C56.4192 121.343 39.3625 123.129 34.8091 123.482C34.5827 123.507 34.3814 123.507 34.2305 123.532C34.482 124.513 34.7588 125.519 35.0858 126.5C37.1487 132.865 40.8217 139.104 47.3877 142.45C49.4003 143.482 51.6644 144.261 54.2556 144.664C55.8657 144.916 57.4254 145.041 58.96 145.041C58.9852 145.041 59.0355 145.041 59.0607 145.041C80.9223 144.941 96.0166 120.261 96.0166 120.261C96.0166 120.261 100.973 117.645 102.004 115.96C102.004 115.96 103.891 115.456 104.495 113.846C104.444 113.746 104.419 113.67 104.369 113.57C104.444 113.544 104.52 113.519 104.595 113.469C105.124 113.243 105.752 112.84 106.23 112.211C106.583 111.733 106.91 110.702 107.01 109.796C107.312 109.343 107.488 108.739 107.388 107.884C108.017 107.482 108.545 106.626 108.067 104.941C107.815 104.161 107.086 103.834 106.08 103.834Z" fill="black"/>
<path d="M58.7116 116.463C58.7116 116.463 54.9632 123.783 34.7368 125.57L33.1016 122.173L58.2336 115.079C58.2336 115.079 59.6424 114.978 58.7116 116.463Z" fill="black"/>
<path d="M74.1278 125.972C74.1278 125.997 74.1278 126.022 74.1027 126.047C74.1027 126.047 62.3291 135.708 51.5366 132.085C51.5366 132.085 48.5429 130.902 51.3605 129.393C52.1404 128.965 52.9958 128.714 53.8763 128.613C55.8888 128.387 60.4675 127.783 61.348 127.028C61.3983 127.003 61.4486 126.953 61.5241 126.902C62.1278 127.179 62.8322 127.406 63.6373 127.582C65.9014 128.085 69.8511 127.431 74.1278 125.972Z" fill="black"/>
<path d="M61.4995 142.299C61.1724 143.356 60.0655 144.337 59.0089 145.066C57.4492 145.066 55.8391 144.966 54.2039 144.689C51.6127 144.261 49.3485 143.507 47.3359 142.475V142.45C47.3359 142.45 53.3737 143.985 57.1473 142.601C57.1724 142.601 62.2039 140.06 61.4995 142.299Z" fill="black"/>
<path d="M61.9794 104.966C61.275 108.262 60.3442 111.557 59.5392 114.249C56.3945 121.369 39.3379 123.155 34.7844 123.507C34.558 123.532 34.3568 123.532 34.2058 123.557C33.6524 121.318 33.275 119.104 33.0234 117.042C36.4951 116.312 57.7027 111.708 61.9794 104.966Z" fill="white" stroke="black" stroke-width="2" stroke-miterlimit="10"/>
<path d="M61.9775 104.966C62.2794 103.557 62.5309 102.174 62.707 100.815C62.7322 100.564 62.7825 100.287 62.8076 100.035C63.0341 98.0731 63.0592 96.2367 62.8076 94.7021C61.6001 86.9536 57.0215 84.0354 57.0215 84.0354" stroke="black" stroke-width="2" stroke-miterlimit="10"/>
</svg>
