<svg width="18" height="18" viewBox="0 0 18 18" fill="none" xmlns="http://www.w3.org/2000/svg">
<path d="M14.3035 11.9465L13.1252 10.7665L14.3035 9.5882C14.6932 9.20191 15.0028 8.74245 15.2144 8.2362C15.4261 7.72995 15.5357 7.18688 15.5369 6.63817C15.5381 6.08946 15.4309 5.54592 15.2214 5.03875C15.012 4.53158 14.7045 4.07077 14.3165 3.68277C13.9285 3.29477 13.4677 2.98723 12.9605 2.77781C12.4533 2.56838 11.9098 2.46119 11.3611 2.46239C10.8124 2.46359 10.2693 2.57316 9.76305 2.78481C9.2568 2.99645 8.79734 3.30601 8.41105 3.6957L7.23271 4.87487L6.05355 3.69653L7.23355 2.5182C8.32756 1.42418 9.81137 0.80957 11.3585 0.80957C12.9057 0.80957 14.3895 1.42418 15.4835 2.5182C16.5776 3.61222 17.1922 5.09603 17.1922 6.6432C17.1922 8.19038 16.5776 9.67418 15.4835 10.7682L14.3044 11.9465H14.3035ZM11.9469 14.3032L10.7677 15.4815C9.67369 16.5756 8.18989 17.1902 6.64271 17.1902C5.09554 17.1902 3.61173 16.5756 2.51771 15.4815C1.4237 14.3875 0.809082 12.9037 0.809082 11.3565C0.809082 9.80936 1.4237 8.32555 2.51771 7.23153L3.69688 6.0532L4.87521 7.2332L3.69688 8.41153C3.30719 8.79783 2.99763 9.25729 2.78599 9.76354C2.57434 10.2698 2.46477 10.8129 2.46357 11.3616C2.46237 11.9103 2.56956 12.4538 2.77898 12.961C2.98841 13.4682 3.29595 13.929 3.68395 14.317C4.07194 14.705 4.53276 15.0125 5.03993 15.2219C5.5471 15.4314 6.09064 15.5385 6.63935 15.5373C7.18806 15.5361 7.73113 15.4266 8.23738 15.2149C8.74363 15.0033 9.20309 14.6937 9.58938 14.304L10.7677 13.1257L11.9469 14.304V14.3032ZM11.3569 5.46403L12.536 6.6432L6.64355 12.5349L5.46438 11.3565L11.3569 5.46487V5.46403Z" fill="#0033A1"/>
</svg>
