<svg width="17" height="23" viewBox="0 0 17 23" fill="none" xmlns="http://www.w3.org/2000/svg">
<path d="M1.89059 21.9209H15.53C16.2313 21.9209 16.803 21.3531 16.803 20.6527V1.70849C16.803 1.00811 16.2313 0.440332 15.53 0.440332H1.89059C1.18883 0.440332 0.617578 1.00815 0.617578 1.70849V20.6527C0.617578 21.3531 1.18883 21.9209 1.89059 21.9209ZM15.53 1.62286C15.5804 1.62286 15.6205 1.6664 15.6205 1.70849V20.6527C15.6205 20.6946 15.5802 20.7384 15.53 20.7384H1.89059C1.84037 20.7384 1.8001 20.6946 1.8001 20.6527V1.70849C1.8001 1.66641 1.84019 1.62286 1.89059 1.62286H15.53ZM11.7991 17.067H13.5642C13.8911 17.067 14.1554 16.8021 14.1554 16.4757C14.1554 16.1492 13.8909 15.8849 13.5642 15.8849H11.7991C11.4724 15.8849 11.2079 16.1492 11.2079 16.4757C11.2079 16.8021 11.4722 17.067 11.7991 17.067ZM11.7991 13.9782H13.5642C13.8911 13.9782 14.1554 13.7132 14.1554 13.3869C14.1554 13.0606 13.8911 12.7957 13.5642 12.7957H11.7991C11.4722 12.7957 11.2079 13.0606 11.2079 13.3869C11.2079 13.7132 11.4722 13.9782 11.7991 13.9782ZM11.7991 10.8893H13.5642C13.8911 10.8893 14.1554 10.6244 14.1554 10.2981C14.1554 9.97176 13.8911 9.70683 13.5642 9.70683H11.7991C11.4722 9.70683 11.2079 9.97177 11.2079 10.2981C11.2079 10.6244 11.4722 10.8893 11.7991 10.8893ZM5.18019 5.59421H12.2404C12.5673 5.59421 12.8316 5.32927 12.8316 5.00295C12.8316 4.67609 12.5672 4.41169 12.2404 4.41169H5.18019C4.85333 4.41169 4.58893 4.67609 4.58893 5.00295C4.58893 5.32927 4.85323 5.59421 5.18019 5.59421ZM9.15155 10.8893C9.4785 10.8893 9.74281 10.6244 9.74281 10.2981C9.74281 9.97177 9.4785 9.70683 9.15155 9.70683H3.85641C3.52945 9.70683 3.26515 9.97177 3.26515 10.2981C3.26515 10.6244 3.52945 10.8893 3.85641 10.8893H9.15155ZM9.15155 12.7957H3.85641C3.52945 12.7957 3.26515 13.0606 3.26515 13.3869C3.26515 13.7132 3.52945 13.9782 3.85641 13.9782H9.15155C9.4785 13.9782 9.74281 13.7132 9.74281 13.3869C9.74281 13.0606 9.4785 12.7957 9.15155 12.7957ZM9.15155 15.8849H3.85641C3.52965 15.8849 3.26515 16.1492 3.26515 16.4757C3.26515 16.8021 3.52945 17.067 3.85641 17.067H9.15155C9.4785 17.067 9.74281 16.8021 9.74281 16.4757C9.74281 16.1492 9.47831 15.8849 9.15155 15.8849Z" fill="#FEB93E" stroke="#FEB93E" stroke-width="0.3" stroke-linecap="round" stroke-linejoin="round"/>
</svg>
