<svg width="161" height="39" viewBox="0 0 161 39" fill="none" xmlns="http://www.w3.org/2000/svg">
<path d="M36.2258 10.4428C36.2258 16.1966 31.7184 20.8856 26.1874 20.8856H19.5934V15.7666H26.1874C29.0217 15.7666 31.305 13.3709 31.305 10.4428C31.305 7.49425 29.0021 5.11902 26.1874 5.11902H12.0744L9.77148 0H26.1874C31.7184 0 36.2258 4.68902 36.2258 10.4428Z" fill="#FEB93E"/>
<path d="M28.707 36.6727H0.57959L1.01262 33.7241C1.13072 32.9665 3.88638 15.2547 17.5072 8.16996L19.7118 12.7361C11.366 17.0771 7.82304 26.6803 6.52395 31.5536H28.707C31.5414 31.5536 33.8247 29.1579 33.8247 26.2299C33.8247 23.2813 31.5217 20.9061 28.707 20.9061H19.574V15.7871H28.707C34.238 15.7871 38.7455 20.4761 38.7455 26.2299C38.7455 31.9836 34.2577 36.6727 28.707 36.6727Z" fill="#FEB93E"/>
<path d="M48.9419 23.3711C48.9419 23.342 48.9419 23.342 48.9419 23.342V10.0222C48.9419 9.03344 49.7247 8.19005 50.7031 8.19005C51.7096 8.19005 52.4924 9.03344 52.4924 10.0222V16.3622C53.6945 15.4897 55.2321 14.9372 56.8256 14.9372C61.1868 14.9372 64.6813 18.776 64.6813 23.4001C64.6813 27.937 61.1868 31.7759 56.8256 31.7759C55.2041 31.7759 53.6665 31.1942 52.4364 30.3217C52.2687 31.136 51.5978 31.7759 50.7311 31.7759C49.7526 31.7759 48.9699 30.9325 48.9699 29.9437V23.3711H48.9419ZM52.4644 23.3711C52.4644 24.6507 52.9397 25.8721 53.7504 26.7155C54.5611 27.588 55.5955 28.0824 56.7976 28.0824C57.9718 28.0824 59.0341 27.588 59.8449 26.7155C60.6556 25.8721 61.1308 24.6507 61.1308 23.3711C61.1308 22.0333 60.6556 20.8118 59.8449 19.9684C59.0341 19.0959 57.9718 18.6015 56.7976 18.6015C55.5955 18.6015 54.5611 19.0959 53.7504 19.9684C52.9397 20.8118 52.4644 22.0333 52.4644 23.3711Z" fill="#03293D"/>
<path d="M71.251 10.7202C71.251 11.7381 70.4962 12.5815 69.4898 12.5815C68.5113 12.5815 67.7285 11.7381 67.7285 10.7202V10.0222C67.7285 9.00436 68.5113 8.19005 69.4898 8.19005C70.4962 8.19005 71.251 9.00436 71.251 10.0222V10.7202ZM71.251 16.7984V29.9146C71.251 30.9325 70.4962 31.7468 69.4898 31.7468C68.5113 31.7468 67.7285 30.9325 67.7285 29.9146V16.7984C67.7285 15.7224 68.5113 14.9372 69.4898 14.9372C70.5242 14.9662 71.251 15.7224 71.251 16.7984Z" fill="#03293D"/>
<path d="M77.821 8.19005C78.8274 8.19005 79.6381 9.03344 79.6381 10.0513V29.9146C79.6381 30.9325 78.8274 31.7759 77.821 31.7759C76.8425 31.7759 76.0317 30.9325 76.0317 29.9146V10.0513C76.0597 9.03344 76.8704 8.19005 77.821 8.19005Z" fill="#03293D"/>
<path d="M85.5651 8.19005C86.5715 8.19005 87.3822 9.03344 87.3822 10.0513V29.9146C87.3822 30.9325 86.5715 31.7759 85.5651 31.7759C84.5866 31.7759 83.7759 30.9325 83.7759 29.9146V10.0513C83.7759 9.03344 84.5866 8.19005 85.5651 8.19005Z" fill="#03293D"/>
<path d="M90.5129 26.9482C91.1 26.1339 92.2182 26.0466 92.9451 26.6864C93.7838 27.4135 95.2375 28.1987 96.4955 28.1696C97.3622 28.1696 98.1729 27.8788 98.7041 27.5298C99.1514 27.1227 99.2912 26.8028 99.2912 26.5119C99.2912 26.3374 99.2632 26.2793 99.2073 26.163C99.1793 26.0757 99.0395 25.9303 98.7879 25.7558C98.3406 25.4068 97.3622 25.0578 96.188 24.8252H96.1601C95.1536 24.6216 94.1751 24.3598 93.3365 23.9527C92.4698 23.5165 91.687 22.9057 91.1 22.0042C90.7365 21.3934 90.5408 20.6664 90.5408 19.8812C90.5408 18.3398 91.3795 17.0311 92.4419 16.1877C93.5881 15.3734 94.93 14.9371 96.4117 14.9371C98.6482 14.9371 100.242 16.0423 101.276 16.7984C102.059 17.351 102.282 18.4561 101.807 19.2995C101.276 20.1138 100.214 20.3465 99.403 19.7648C98.3686 19.0668 97.474 18.5143 96.4117 18.5143C95.6009 18.5143 94.902 18.776 94.4827 19.125C94.0633 19.4158 93.9515 19.7357 93.9515 19.9102C93.9515 20.0557 93.9515 20.0847 94.0074 20.172C94.0354 20.2301 94.1472 20.3756 94.3708 20.521C94.7902 20.8118 95.6289 21.1317 96.7471 21.3353L96.7751 21.3644H96.803C97.8654 21.5679 98.8718 21.8588 99.8223 22.3532C100.689 22.7603 101.584 23.4001 102.115 24.3308C102.506 24.9997 102.73 25.7849 102.73 26.541C102.73 28.1987 101.863 29.5656 100.689 30.4381C99.5148 31.2814 98.0611 31.7758 96.4955 31.7758C93.9795 31.7468 92.0225 30.5253 90.7365 29.4493C90.0376 28.8385 89.9258 27.6752 90.5129 26.9482Z" fill="#03293D"/>
<path d="M106.896 23.7782V23.4292V23.0802V16.0423C106.896 15.6061 107.259 15.228 107.678 15.228C108.126 15.228 108.489 15.6061 108.489 16.0423V18.4271C109.859 16.5076 112.039 15.228 114.5 15.228C118.777 15.228 122.16 18.8924 122.16 23.4001C122.16 27.8788 118.749 31.6014 114.5 31.6014C112.039 31.6014 109.831 30.3218 108.489 28.3732V37.7959C108.489 38.2322 108.126 38.6102 107.678 38.6102C107.259 38.6102 106.896 38.2322 106.896 37.7959V23.7782ZM108.489 23.4292C108.489 27.0645 111.229 30.0018 114.5 30.0309C117.854 30.0018 120.594 27.0645 120.594 23.4292C120.594 19.7939 117.882 16.8857 114.5 16.8857C111.285 16.8857 108.601 19.6485 108.489 23.1384V23.4292Z" fill="#03293D"/>
<path d="M141.226 16.0714V30.9616C141.226 31.3978 140.863 31.7759 140.443 31.7759C140.024 31.7759 139.661 31.3978 139.661 30.9616V28.4896C138.291 30.4381 136.138 31.7468 133.706 31.7468C129.54 31.7468 126.186 27.9952 126.186 23.4874C126.186 18.9796 129.512 15.228 133.706 15.228C136.138 15.228 138.291 16.5076 139.661 18.4561V16.0423C139.661 15.577 140.024 15.228 140.443 15.228C140.863 15.228 141.226 15.6061 141.226 16.0714ZM139.689 23.5165C139.689 19.823 137.005 16.8566 133.734 16.8566C130.491 16.8566 127.779 19.823 127.779 23.5165C127.779 27.2099 130.491 30.1473 133.734 30.1473C137.005 30.1473 139.689 27.2099 139.689 23.5165Z" fill="#03293D"/>
<path d="M147.321 16.0423C147.321 15.6061 147.684 15.2571 148.075 15.2571C148.523 15.2571 148.886 15.6061 148.886 16.0423V24.9997C148.886 27.8207 151.067 30.0891 153.751 30.0891C156.462 30.0891 158.643 27.8207 158.671 24.9997V16.0423C158.671 15.8969 158.699 15.7515 158.811 15.6351C158.811 15.6061 158.839 15.577 158.839 15.5479C158.867 15.5479 158.867 15.5188 158.894 15.5188C158.95 15.4316 159.09 15.3443 159.174 15.3152H159.23C159.258 15.3152 159.286 15.2862 159.314 15.2862H159.398H159.482C159.621 15.3152 159.733 15.3734 159.873 15.4607C159.929 15.5188 160.041 15.6352 160.069 15.7224C160.125 15.8096 160.153 15.9551 160.153 16.0714V25.0288V25.3196V30.4672C160.153 34.7714 156.798 38.2031 152.604 38.2031C151.43 38.2031 150.34 37.9123 149.333 37.4179C148.97 37.1852 148.802 36.7199 148.998 36.3418C149.194 35.9347 149.613 35.8474 150.004 35.9347C150.787 36.3418 151.682 36.5745 152.604 36.5745C155.903 36.5745 158.559 33.8407 158.587 30.4381V29.362C157.385 30.7871 155.652 31.7177 153.667 31.7177C150.144 31.6886 147.265 28.6931 147.265 24.9706V16.0423H147.321Z" fill="#03293D"/>
</svg>
