<svg width="39" height="37" viewBox="0 0 39 37" fill="none" xmlns="http://www.w3.org/2000/svg">
<path d="M36.2258 10.4428C36.2258 16.1966 31.7184 20.8856 26.1874 20.8856H19.5934V15.7666H26.1874C29.0217 15.7666 31.305 13.3709 31.305 10.4428C31.305 7.49425 29.0021 5.11902 26.1874 5.11902H12.0744L9.77148 0H26.1874C31.7184 0 36.2258 4.68902 36.2258 10.4428Z" fill="#FEB93E"/>
<path d="M28.707 36.6727H0.57959L1.01262 33.7241C1.13072 32.9665 3.88638 15.2547 17.5072 8.16996L19.7118 12.7361C11.366 17.0771 7.82304 26.6803 6.52395 31.5536H28.707C31.5414 31.5536 33.8247 29.1579 33.8247 26.2299C33.8247 23.2813 31.5217 20.9061 28.707 20.9061H19.574V15.7871H28.707C34.238 15.7871 38.7455 20.4761 38.7455 26.2299C38.7455 31.9836 34.2577 36.6727 28.707 36.6727Z" fill="#FEB93E"/>
</svg>
