<svg width="25" height="25" viewBox="0 0 25 25" fill="none" xmlns="http://www.w3.org/2000/svg">
<path opacity="0.3" d="M5.56875 20.5128L0 25V1.28205C0 0.94203 0.131696 0.615935 0.366116 0.375504C0.600537 0.135073 0.918479 0 1.25 0H23.75C24.0815 0 24.3995 0.135073 24.6339 0.375504C24.8683 0.615935 25 0.94203 25 1.28205V19.2308C25 19.5708 24.8683 19.8969 24.6339 20.1373C24.3995 20.3777 24.0815 20.5128 23.75 20.5128H5.56875ZM4.70375 17.9487H22.5V2.5641H2.5V19.7244L4.70375 17.9487ZM11.6163 11.6936L16.92 6.25513L18.6875 8.06795L11.6163 15.3205L6.75375 10.3333L8.5225 8.52051L11.6163 11.6936Z" fill="#03293D"/>
</svg>
