<svg width="13" height="15" viewBox="0 0 13 15" fill="none" xmlns="http://www.w3.org/2000/svg">
<path fill-rule="evenodd" clip-rule="evenodd" d="M10.5504 8.58037V5.81036H12.7083V4.70236H10.5504V0H9.48781V4.70236H5.75546L3.37795 0H2.04973V4.70236H0V5.81036H2.04973V8.58037H0V9.68837H2.04973V14.1204H3.11233V9.68837H7.00352L9.22219 14.1204H10.5504V9.68837H12.7083V8.58037H10.5504ZM9.45829 12.0262H9.48781V9.68837H8.27629L9.45829 12.0262ZM7.71612 8.58037L6.31563 5.81036H9.48781V8.58037H7.71612ZM3.11233 8.58037H6.44885L5.06218 5.81036H3.11233V8.58037ZM3.14185 1.97446L4.50751 4.70236H3.11233V1.97446H3.14185Z" fill="#0033A1"/>
</svg>
