<svg width="12" height="14" viewBox="0 0 12 14" fill="none" xmlns="http://www.w3.org/2000/svg">
<path d="M0 4.37726H1.45909V0H2.91817L5.41547 4.37726H8.75452V0H10.2136V4.37726H11.6727V5.83635H10.2136V7.29543H11.6727V8.75452H10.2136V13.1318H8.75452L6.24869 8.75452H2.91817V13.1318H1.45909V8.75452H0V7.29543H1.45909V5.83635H0V4.37726ZM2.91817 4.37726H3.74278L2.91817 2.93684V4.37726ZM2.91817 5.83635V7.29543H5.41336L4.5781 5.83635H2.91817ZM8.75452 10.2299V8.75452H7.91277L8.75452 10.2299ZM6.24796 5.83635L7.08037 7.29543H8.75452V5.83635H6.24796Z" fill="white"/>
</svg>
