<svg width="133" height="162" viewBox="0 0 133 162" fill="none" xmlns="http://www.w3.org/2000/svg">
<g opacity="0.95">
<ellipse opacity="0.05" cx="68.7868" cy="150.797" rx="45.1159" ry="11.0233" fill="#00B6D4"/>
<path opacity="0.1" d="M31.0366 68.4479C31.0366 66.2388 32.8275 64.4479 35.0366 64.4479H113.585C115.795 64.4479 117.585 66.2388 117.585 68.4479V86.4944H31.0366V68.4479Z" fill="#00B6D4"/>
<path d="M117.585 35.0526C112.508 35.0526 108.378 39.1735 108.378 44.2387C108.378 49.3038 112.508 53.4247 117.585 53.4247C122.662 53.4247 126.793 49.3038 126.793 44.2387C126.792 39.1735 122.662 35.0526 117.585 35.0526ZM117.585 51.9441C113.327 51.9441 109.862 48.4875 109.862 44.2383C109.862 39.9895 113.327 36.5329 117.585 36.5329C121.844 36.5329 125.309 39.9898 125.309 44.2387C125.309 48.4875 121.844 51.9441 117.585 51.9441Z" fill="#BDBDBD"/>
<path d="M120.521 41.3095L116.223 45.5976L114.65 44.0286C114.361 43.7394 113.891 43.7394 113.601 44.0286C113.311 44.3176 113.311 44.7863 113.601 45.0752L115.699 47.1676C115.843 47.3121 116.033 47.3846 116.223 47.3846C116.413 47.3846 116.603 47.3124 116.747 47.1676L121.57 42.3564C121.859 42.0671 121.859 41.5988 121.57 41.3095C121.28 41.0206 120.81 41.0206 120.521 41.3095Z" fill="#BDBDBD"/>
<path d="M111.773 103.283L94.1197 95.3615C93.5349 95.0991 92.917 95.0052 92.3228 95.0619C91.7281 95.0057 91.1106 95.0991 90.5259 95.3615L72.8725 103.283C71.5772 103.865 70.7432 105.156 70.7432 106.581V120.336C70.7432 125.985 72.9655 131.751 76.8405 136.156C80.9779 140.858 86.39 143.448 92.08 143.448H92.5654C98.2556 143.448 103.668 140.858 107.805 136.156C111.68 131.751 113.902 125.985 113.902 120.336V106.581C113.902 105.156 113.068 103.865 111.773 103.283ZM106.709 120.336H106.709C106.709 127.836 100.66 136.224 92.5656 136.224H92.0802C83.9852 136.224 77.9366 127.836 77.9366 120.336V108.923L92.323 102.468L106.709 108.923V120.336Z" fill="#BDBDBD"/>
<path d="M99.5158 57.0992H36.2155C28.2829 57.0992 21.8291 63.5806 21.8291 71.5472V110.557C21.8291 118.523 28.2829 125.005 36.2155 125.005H60.133C62.1194 125.005 63.7296 123.388 63.7296 121.393C63.7296 119.398 62.1194 117.781 60.133 117.781H36.2155C32.2492 117.781 29.0223 114.54 29.0223 110.557V83.4887H106.709V90.7127C106.709 92.7076 108.319 94.3247 110.306 94.3247C112.292 94.3247 113.902 92.7076 113.902 90.7127V71.5472C113.902 63.5806 107.449 57.0992 99.5158 57.0992ZM106.709 76.2647H29.0223V71.5472C29.0223 67.5639 32.2492 64.3232 36.2155 64.3232H99.5158C103.482 64.3232 106.709 67.5639 106.709 71.5472V76.2647Z" fill="#BDBDBD"/>
<path fill-rule="evenodd" clip-rule="evenodd" d="M20.9729 7.57936L15.5474 13.0048L20.9604 18.4178C21.2592 18.7165 21.2586 19.2021 20.9591 19.5016C20.6596 19.8011 20.1741 19.8016 19.8753 19.5028L14.4623 14.0899L9.03687 19.5154C8.73739 19.8149 8.25183 19.8154 7.95304 19.5166C7.65424 19.2178 7.6548 18.7323 7.95429 18.4328L13.3798 13.0073L7.96682 7.5944C7.66803 7.29561 7.66859 6.81005 7.96808 6.51056C8.26756 6.21108 8.75312 6.21051 9.05192 6.50931L14.4648 11.9222L19.8903 6.49677C20.1898 6.19729 20.6754 6.19673 20.9741 6.49552C21.2729 6.79431 21.2724 7.27987 20.9729 7.57936Z" fill="#BDBDBD"/>
<path fill-rule="evenodd" clip-rule="evenodd" d="M45.2311 139.391H39.8601V144.749C39.8601 145.045 39.6195 145.285 39.3231 145.285C39.0266 145.285 38.786 145.045 38.786 144.749V139.391H33.415C33.1185 139.391 32.8779 139.151 32.8779 138.855C32.8779 138.559 33.1185 138.319 33.415 138.319H38.786V132.961C38.786 132.665 39.0266 132.425 39.3231 132.425C39.6195 132.425 39.8601 132.665 39.8601 132.961V138.319H45.2311C45.5276 138.319 45.7682 138.559 45.7682 138.855C45.7682 139.151 45.5276 139.391 45.2311 139.391Z" fill="#BDBDBD"/>
<path d="M132.47 125.192C132.47 127.124 130.9 128.692 128.96 128.692C127.021 128.692 125.451 127.124 125.451 125.192C125.451 123.26 127.021 121.692 128.96 121.692C130.9 121.692 132.47 123.26 132.47 125.192Z" fill="#F2994A" fill-opacity="0.25" stroke="#394354"/>
<path d="M5.71792 84.3873C6.29561 83.3891 7.73681 83.3891 8.31449 84.3873L10.9226 88.8943C11.5013 89.8943 10.7797 91.1456 9.62431 91.1456H4.40811C3.25274 91.1456 2.53113 89.8943 3.10982 88.8943L5.71792 84.3873Z" fill="#F2C94C" fill-opacity="0.3" stroke="#394354"/>
</g>
</svg>
