<svg width="11" height="13" viewBox="0 0 11 13" fill="none" xmlns="http://www.w3.org/2000/svg">
<path d="M11 10.5238V11.1429H0V10.5238L1.22222 9.28572V5.57143C1.22174 3.65467 2.46445 1.96529 4.27778 1.41762C4.27477 1.35782 4.27477 1.2979 4.27778 1.2381C4.27778 0.554295 4.82497 0 5.5 0C6.17503 0 6.72222 0.554295 6.72222 1.2381C6.72522 1.2979 6.72522 1.35782 6.72222 1.41762C8.53557 1.96529 9.77827 3.65467 9.77778 5.57143V9.28572L11 10.5238ZM6.72222 11.7619C6.72222 12.4457 6.17503 13 5.5 13C4.82497 13 4.27778 12.4457 4.27778 11.7619" fill="#FEB93E"/>
</svg>
