<svg width="62" height="73" viewBox="0 0 62 73" fill="none" xmlns="http://www.w3.org/2000/svg">
<path d="M51.6667 24.3333H58.5556C59.4691 24.3333 60.3452 24.6996 60.9911 25.3515C61.6371 26.0034 62 26.8876 62 27.8095V69.5238C62 70.4458 61.6371 71.3299 60.9911 71.9818C60.3452 72.6338 59.4691 73 58.5556 73H3.44444C2.53092 73 1.65481 72.6338 1.00885 71.9818C0.362896 71.3299 0 70.4458 0 69.5238V27.8095C0 26.8876 0.362896 26.0034 1.00885 25.3515C1.65481 24.6996 2.53092 24.3333 3.44444 24.3333H10.3333V20.8571C10.3333 15.3255 12.5107 10.0204 16.3865 6.10892C20.2622 2.19744 25.5189 0 31 0C36.4811 0 41.7378 2.19744 45.6135 6.10892C49.4893 10.0204 51.6667 15.3255 51.6667 20.8571V24.3333ZM44.7778 24.3333V20.8571C44.7778 17.1694 43.3262 13.6326 40.7424 11.025C38.1585 8.41734 34.6541 6.95238 31 6.95238C27.3459 6.95238 23.8415 8.41734 21.2576 11.025C18.6738 13.6326 17.2222 17.1694 17.2222 20.8571V24.3333H44.7778ZM27.5556 45.1905V52.1429H34.4444V45.1905H27.5556ZM13.7778 45.1905V52.1429H20.6667V45.1905H13.7778ZM41.3333 45.1905V52.1429H48.2222V45.1905H41.3333Z" fill="#0033A1"/>
</svg>
