<svg
  width="16"
  height="18"
  viewBox="0 0 16 18"
  fill="none"
  xmlns="http://www.w3.org/2000/svg"
>
<path
    d="M8.16527 8.39409C8.64123 8.39409 9.02638 8.00848 9.02638 7.53298V1.71111C9.02638 1.23561 8.64123 0.85 8.16527 0.85C7.69012 0.85 7.30416 1.23551 7.30416 1.71111V7.53298C7.30416 8.00858 7.69012 8.39409 8.16527 8.39409ZM12.3727 3.85564C11.984 3.58096 11.4462 3.67441 11.1725 4.06334C10.8988 4.45211 10.9916 4.98944 11.3806 5.26327C12.8701 6.31275 13.759 8.02166 13.759 9.8344C13.759 12.9185 11.2498 15.4278 8.16529 15.4278C5.08147 15.4278 2.57222 12.9185 2.57222 9.83438C2.57222 8.02198 3.46075 6.31279 4.95022 5.26329C5.33922 4.98951 5.43206 4.45221 5.15815 4.06341C4.88466 3.6742 4.34717 3.58148 3.95838 3.85551C2.01209 5.2269 0.85 7.46176 0.85 9.83438C0.85 13.8683 4.13139 17.15 8.16529 17.15C12.1995 17.15 15.4813 13.8683 15.4813 9.83438C15.4813 7.46183 14.3192 5.22702 12.3727 3.85564Z"
    fill=" #EB5757"
    stroke="#EB5757"
    stroke-width="0.3"
  />
</svg>
