<svg width="19" height="21" viewBox="0 0 19 21" fill="none" xmlns="http://www.w3.org/2000/svg">
<path opacity="0.3" d="M12.6666 2.1H2.11111V18.9H16.8889V6.3H12.6666V2.1ZM0 1.0416C0 0.4662 0.471833 0 1.0545 0H13.7222L19 5.25V19.9426C19.0009 20.0805 18.9746 20.2173 18.9225 20.345C18.8703 20.4728 18.7934 20.5891 18.696 20.6873C18.5987 20.7855 18.4829 20.8636 18.3552 20.9173C18.2275 20.9709 18.0904 20.999 17.9518 21H1.04817C0.770954 20.9981 0.505629 20.8878 0.309507 20.6929C0.113385 20.498 0.00221102 20.2341 0 19.9584V1.0416ZM8.44443 9.45H10.5555V15.75H8.44443V9.45ZM8.44443 5.25H10.5555V7.35H8.44443V5.25Z" fill="#03293D"/>
</svg>
