<svg width="18" height="18" viewBox="0 0 18 18" fill="none" xmlns="http://www.w3.org/2000/svg">
<path d="M10.1244 0C8.03661 0.00253058 6.03505 0.833028 4.55874 2.30933C3.08244 3.78563 2.25195 5.7872 2.24942 7.875C2.25497 9.57098 2.81316 11.2189 3.83942 12.5692L0.329003 16.0796C0.22407 16.1839 0.140759 16.308 0.0838421 16.4446C0.0269252 16.5812 -0.00247857 16.7277 -0.00268446 16.8757C-0.00289035 17.0236 0.0261057 17.1702 0.0826422 17.307C0.139179 17.4437 0.222145 17.568 0.326786 17.6726C0.431428 17.7773 0.555689 17.8602 0.692449 17.9168C0.82921 17.9733 0.975781 18.0023 1.12377 18.0021C1.27175 18.0019 1.41824 17.9725 1.55485 17.9156C1.69145 17.8587 1.81548 17.7754 1.91983 17.6704L5.43024 14.16C6.78049 15.1863 8.42844 15.7445 10.1244 15.75C12.213 15.75 14.216 14.9203 15.6929 13.4435C17.1697 11.9666 17.9994 9.96358 17.9994 7.875C17.9994 5.78642 17.1697 3.78338 15.6929 2.30654C14.216 0.829685 12.213 0 10.1244 0V0ZM10.1244 13.5C9.0119 13.5 7.92436 13.1701 6.99933 12.552C6.07431 11.9339 5.35334 11.0554 4.92759 10.0276C4.50185 8.99976 4.39046 7.86876 4.6075 6.77762C4.82454 5.68648 5.36027 4.6842 6.14694 3.89753C6.93361 3.11086 7.93589 2.57513 9.02703 2.35808C10.1182 2.14104 11.2492 2.25244 12.277 2.67818C13.3048 3.10392 14.1834 3.82489 14.8014 4.74992C15.4195 5.67495 15.7494 6.76248 15.7494 7.875C15.7477 9.36631 15.1545 10.796 14.1 11.8505C13.0454 12.9051 11.6157 13.4983 10.1244 13.5Z" fill="#996FB3"/>
</svg>
