<svg width="22" height="22" viewBox="0 0 22 22" fill="none" xmlns="http://www.w3.org/2000/svg">
<path d="M18.8719 12.0736L21.1962 13.892C21.403 14.0602 21.4635 14.3572 21.326 14.5948L19.126 18.4053C18.9896 18.6428 18.7014 18.7396 18.4528 18.6439L15.7138 17.5395C15.1462 17.9762 14.5247 18.3437 13.8559 18.622L13.4434 21.5369C13.4016 21.7988 13.1739 22 12.9 22H8.49996C8.22496 22 7.99837 21.7988 7.95658 21.5369L7.54408 18.622C6.87417 18.3447 6.25264 17.9762 5.68505 17.5406L2.94713 18.6439C2.69856 18.7396 2.41033 18.6428 2.27396 18.4053L0.0739495 14.5948C-0.0635508 14.3572 -0.00308365 14.0602 0.20375 13.892L2.52696 12.0736L2.44994 11L2.52696 9.92648L0.20375 8.10697C-0.00308365 7.93984 -0.0635508 7.64282 0.0739495 7.40523L2.27396 3.59479C2.41033 3.35721 2.69856 3.26044 2.94713 3.35613L5.68395 4.45944C6.25154 4.02386 6.87305 3.65531 7.54408 3.377L7.95658 0.463167C7.99837 0.201235 8.22496 0 8.49996 0H12.9C13.1739 0 13.4016 0.201235 13.4434 0.463167L13.8559 3.37806C14.5258 3.65531 15.1473 4.02386 15.7149 4.45944L18.4528 3.35613C18.7014 3.26044 18.9896 3.35721 19.126 3.59479L21.326 7.40523C21.4635 7.64282 21.403 7.93984 21.1962 8.10697L18.8719 9.92648L18.9489 11L18.8719 12.0736ZM4.65061 11.0022C4.65061 11.6373 4.74849 12.2496 4.92997 12.8248L2.65372 14.6986L3.47872 16.1275L6.24248 15.0922C7.06475 15.9879 8.15353 16.6353 9.38317 16.9083L9.8686 19.8208H11.5186L12.0035 16.9116C13.2356 16.6411 14.3271 15.9952 15.1519 15.0997L17.9119 16.1337L18.7369 14.7048L16.4675 12.8365C16.6514 12.2579 16.7507 11.6416 16.7507 11.0022C16.7507 10.3708 16.654 9.76203 16.4744 9.18981L18.7404 7.32436L17.9154 5.89541L15.1696 6.92409C14.3437 6.01954 13.2469 5.36661 12.0076 5.0937L11.5256 2.20216H9.87564L9.39372 5.0937C8.15596 5.36624 7.06038 6.01782 6.23487 6.92051L3.48225 5.88928L2.65726 7.31823L4.92757 9.18728C4.74762 9.76016 4.65061 10.3699 4.65061 11.0022ZM10.7006 7.15216C12.8269 7.15216 14.5506 8.87587 14.5506 11.0022C14.5506 13.1285 12.8269 14.8522 10.7006 14.8522C8.57433 14.8522 6.85063 13.1285 6.85063 11.0022C6.85063 8.87587 8.57433 7.15216 10.7006 7.15216ZM10.7006 9.35217C9.7894 9.35217 9.05063 10.0909 9.05063 11.0022C9.05063 11.9134 9.7894 12.6522 10.7006 12.6522C11.6119 12.6522 12.3506 11.9134 12.3506 11.0022C12.3506 10.0909 11.6119 9.35217 10.7006 9.35217Z" fill="#828282"/>
</svg>
