<svg
  width="20"
  height="21"
  viewBox="0 0 20 21"
  fill="none"
  xmlns="http://www.w3.org/2000/svg"
>
<path
    d="M10.0005 7C12.2096 7 14.0005 8.79086 14.0005 11C14.0005 13.2091 12.2096 15 10.0005 15C7.79139 15 6.00053 13.2091 6.00053 11C6.00053 8.79086 7.79139 7 10.0005 7ZM10.0005 9C8.89593 9 8.00053 9.8954 8.00053 11C8.00053 12.1046 8.89593 13 10.0005 13C11.1051 13 12.0005 12.1046 12.0005 11C12.0005 9.8954 11.1051 9 10.0005 9ZM7.99992 20.998C7.74992 20.998 7.54393 20.8151 7.50594 20.577L7.13094 17.9271C6.52193 17.675 5.95691 17.34 5.44092 16.944L2.9519 17.947C2.72593 18.034 2.46391 17.946 2.33993 17.7301L0.339932 14.266C0.214932 14.05 0.269902 13.78 0.457932 13.6271L2.56993 11.974L2.49992 10.998L2.56993 10.0221L0.457932 8.368C0.269902 8.21607 0.214932 7.94605 0.339932 7.73006L2.33993 4.26604C2.46391 4.05005 2.72593 3.96208 2.9519 4.04907L5.43992 5.05209C5.95591 4.65609 6.52091 4.32105 7.13094 4.06804L7.50594 1.41911C7.54393 1.18099 7.74992 0.998047 7.99992 0.998047L12.0011 0.999997C12.2511 0.999997 12.4571 1.18295 12.4951 1.42106L12.8701 4.06999C13.4801 4.323 14.0451 4.65804 14.5611 5.05404L17.0491 4.05103C17.2751 3.96403 17.5371 4.052 17.6611 4.26798L19.6611 7.73201C19.7861 7.948 19.7311 8.21802 19.5431 8.36995L17.4311 10.024L17.5011 11L17.4311 11.976L19.5431 13.6291C19.7311 13.782 19.7861 14.052 19.6611 14.268L17.6611 17.732C17.5371 17.948 17.2751 18.036 17.0491 17.949L14.5601 16.946C14.0441 17.342 13.4791 17.677 12.8701 17.929L12.4951 20.5789C12.4571 20.8171 12.2511 21 12.0011 21L7.99992 20.998ZM9.25053 3.00002L8.88453 5.61329C7.68316 5.86089 6.62487 6.5003 5.84919 7.39206L3.43838 6.35194L2.68838 7.65098L4.80125 9.2024C4.3995 10.3672 4.40029 11.6401 4.80361 12.8044L2.68517 14.3604L3.43517 15.6594L5.85583 14.6156C6.62886 15.501 7.68101 16.1365 8.87503 16.3848L9.24413 19.0169L10.7569 19.0189L11.126 16.3867C12.32 16.1384 13.3722 15.5029 14.1452 14.6175L16.5659 15.6614L17.3159 14.3623L15.1974 12.8064C15.6007 11.642 15.6015 10.3692 15.1998 9.2044L17.3126 7.65293L16.5626 6.35389L14.1518 7.394C13.3761 6.50225 12.3179 5.86284 11.1165 5.61524L10.7505 3.00197L9.25053 3.00002Z"
    fill="#5d2684"
  />
</svg>
