<svg width="13" height="13" viewBox="0 0 13 13" fill="none" xmlns="http://www.w3.org/2000/svg">
<path d="M0.604492 12.395C0.604492 11.1441 1.10139 9.94451 1.98587 9.06003C2.87035 8.17555 4.06996 7.67866 5.3208 7.67866C6.57165 7.67866 7.77126 8.17555 8.65574 9.06003C9.54022 9.94451 10.0371 11.1441 10.0371 12.395H8.85804C8.85804 11.4568 8.48537 10.5571 7.82201 9.89377C7.15865 9.23041 6.25894 8.85773 5.3208 8.85773C4.38267 8.85773 3.48296 9.23041 2.8196 9.89377C2.15624 10.5571 1.78357 11.4568 1.78357 12.395H0.604492ZM5.3208 7.08912C3.36648 7.08912 1.78357 5.50621 1.78357 3.55188C1.78357 1.59756 3.36648 0.0146484 5.3208 0.0146484C7.27513 0.0146484 8.85804 1.59756 8.85804 3.55188C8.85804 5.50621 7.27513 7.08912 5.3208 7.08912ZM5.3208 5.91004C6.62368 5.91004 7.67896 4.85476 7.67896 3.55188C7.67896 2.249 6.62368 1.19373 5.3208 1.19373C4.01792 1.19373 2.96265 2.249 2.96265 3.55188C2.96265 4.85476 4.01792 5.91004 5.3208 5.91004ZM10.2045 8.0931C11.033 8.46624 11.7362 9.0707 12.2294 9.83384C12.7226 10.597 12.9849 11.4863 12.9848 12.395H11.8057C11.8059 11.7135 11.6092 11.0464 11.2392 10.474C10.8693 9.90162 10.342 9.44825 9.72053 9.16842L10.204 8.0931H10.2045ZM9.79894 1.43721C10.3929 1.68204 10.9008 2.09781 11.2581 2.63175C11.6153 3.16569 11.806 3.79374 11.8057 4.43619C11.806 5.24523 11.5037 6.02513 10.9583 6.62269C10.4129 7.22025 9.66374 7.59227 8.85804 7.66569V6.47894C9.29485 6.41638 9.7001 6.21543 10.0143 5.90559C10.3285 5.59575 10.5351 5.19335 10.6038 4.75745C10.6724 4.32155 10.5995 3.87513 10.3958 3.48371C10.192 3.09228 9.86818 2.77649 9.47175 2.58268L9.79894 1.43721Z" fill="white"/>
</svg>
