<svg width="100" height="100" viewBox="0 0 100 100" fill="none" xmlns="http://www.w3.org/2000/svg">
<circle cx="50" cy="50" r="50" fill="#BFC5D1"/>
<path d="M64.1422 55.8578C61.9638 53.6795 59.371 52.067 56.5421 51.0908C59.572 49.004 61.5625 45.5116 61.5625 41.5625C61.5625 35.187 56.3755 30 50 30C43.6245 30 38.4375 35.187 38.4375 41.5625C38.4375 45.5116 40.428 49.004 43.458 51.0908C40.6291 52.067 38.0363 53.6795 35.8579 55.8578C32.0804 59.6354 30 64.6578 30 70H33.125C33.125 60.6951 40.6951 53.125 50 53.125C59.3049 53.125 66.875 60.6951 66.875 70H70C70 64.6578 67.9196 59.6354 64.1422 55.8578ZM50 50C45.3476 50 41.5625 46.215 41.5625 41.5625C41.5625 36.91 45.3476 33.125 50 33.125C54.6524 33.125 58.4375 36.91 58.4375 41.5625C58.4375 46.215 54.6524 50 50 50Z" fill="white"/>
</svg>
