<svg width="20" height="20" viewBox="0 0 20 20" fill="none" xmlns="http://www.w3.org/2000/svg">
<path d="M15 5H20V15H15V17C15 17.5523 15.4477 18 16 18H18V20H15.5C14.95 20 14 19.55 14 19C14 19.55 13.05 20 12.5 20H10V18H12C12.5523 18 13 17.5523 13 17V3C13 2.4477 12.5523 2 12 2H10V0H12.5C13.05 0 14 0.45 14 1C14 0.45 14.95 0 15.5 0H18V2H16C15.4477 2 15 2.4477 15 3V5ZM0 5H11V7H2V13H11V15H0V5ZM18 13V7H15V13H18ZM6.5 10C6.5 9.1716 5.82843 8.5 5 8.5C4.17157 8.5 3.5 9.1716 3.5 10C3.5 10.8284 4.17157 11.5 5 11.5C5.82843 11.5 6.5 10.8284 6.5 10ZM11 8.89C10.387 8.3328 9.4383 8.3781 8.8811 8.9911C8.3239 9.6041 8.3691 10.5528 8.9822 11.11C9.5543 11.63 10.4279 11.63 11 11.11V8.89Z" fill="#00B394"/>
</svg>
