<svg width="41" height="13" viewBox="0 0 41 13" fill="none" xmlns="http://www.w3.org/2000/svg">
<path d="M14.0918 12.0873L16.1166 0.205719H19.3551L17.329 12.0873H14.0918Z" fill="#0033A1"/>
<path d="M29.0748 0.49896C28.4332 0.257802 27.4278 4.84126e-08 26.1722 4.84126e-08C22.9724 -0.000322528 20.7182 1.6114 20.6991 3.92092C20.6811 5.62806 22.3083 6.5805 23.5367 7.14881C24.7973 7.73074 25.221 8.10247 25.215 8.6226C25.2071 9.41859 24.2084 9.78278 23.2776 9.78278C21.9814 9.78265 21.2928 9.60278 20.2292 9.15917L19.8119 8.97002L19.3574 11.6298C20.1139 11.9616 21.5126 12.249 22.9648 12.264C26.369 12.2638 28.5789 10.671 28.604 8.2048C28.6163 6.85301 27.7535 5.82463 25.8852 4.97664C24.7532 4.42672 24.0599 4.06027 24.0672 3.50376C24.0673 3.00976 24.654 2.48177 25.9218 2.48177C26.981 2.46493 27.7479 2.69622 28.3456 2.93693L28.6359 3.07376L29.0749 0.498959L29.0748 0.49896Z" fill="#0033A1"/>
<path d="M37.381 0.217451H34.8784C34.1032 0.217451 33.523 0.429513 33.1825 1.20325L28.373 12.0913H31.7736C31.7736 12.0913 32.3297 10.6275 32.4555 10.3062C32.8272 10.3062 36.1306 10.3113 36.6029 10.3113C36.6999 10.7271 36.9969 12.0916 36.9969 12.0916L40.0021 12.0913L37.381 0.217438L37.381 0.217451ZM33.3874 7.87572C33.6553 7.19108 34.6777 4.55467 34.6777 4.55467C34.6587 4.58608 34.9435 3.86674 35.1071 3.42068L35.3262 4.44473C35.3262 4.44473 35.9461 7.28115 36.0757 7.87592L33.3874 7.87572V7.87572Z" fill="#0033A1"/>
<path d="M11.3744 0.214844L8.20396 8.31715L7.86609 6.67078C7.27591 4.77248 5.43677 2.71638 3.38086 1.68686L6.27998 12.0774L9.70639 12.0734L14.8048 0.21485H11.3745L11.3744 0.214844Z" fill="#0033A1"/>
<path d="M5.26342 0.207686H0.0413543L0 0.455037C4.06266 1.43825 6.75088 3.81519 7.8668 6.67077L6.73127 1.21089C6.53527 0.458572 5.96663 0.234121 5.26341 0.207672L5.26342 0.207686Z" fill="#0033A1"/>
</svg>
