<svg
  width="18"
  height="17"
  viewBox="0 0 18 17"
  fill="none"
  xmlns="http://www.w3.org/2000/svg"
>
<path
    d="M16.5 13.75V14.6667C16.5 15.675 15.675 16.5 14.6667 16.5H1.83333C0.815833 16.5 0 15.675 0 14.6667V1.83333C0 0.825 0.815833 0 1.83333 0H14.6667C15.675 0 16.5 0.825 16.5 1.83333V2.75H8.25C7.2325 2.75 6.41667 3.575 6.41667 4.58333V11.9167C6.41667 12.925 7.2325 13.75 8.25 13.75H16.5ZM8.25 11.9167H17.4167V4.58333H8.25V11.9167ZM11.9167 9.625C11.1558 9.625 10.5417 9.01083 10.5417 8.25C10.5417 7.48917 11.1558 6.875 11.9167 6.875C12.6775 6.875 13.2917 7.48917 13.2917 8.25C13.2917 9.01083 12.6775 9.625 11.9167 9.625Z"
    fill="#FEB93E"
  />
</svg>
