<svg width="17" height="15" viewBox="0 0 17 15" fill="none" xmlns="http://www.w3.org/2000/svg">
<path d="M0.583984 4.75H15.6257C15.8356 4.75 16.037 4.83341 16.1854 4.98187C16.3339 5.13034 16.4173 5.3317 16.4173 5.54167V13.4583C16.4173 13.6683 16.3339 13.8697 16.1854 14.0181C16.037 14.1666 15.8356 14.25 15.6257 14.25H1.37565C1.16569 14.25 0.964324 14.1666 0.815858 14.0181C0.667392 13.8697 0.583984 13.6683 0.583984 13.4583V4.75ZM1.37565 0H13.2507V3.16667H0.583984V0.791667C0.583984 0.581704 0.667392 0.38034 0.815858 0.231874C0.964324 0.0834075 1.16569 0 1.37565 0ZM10.8757 8.70833V10.2917H13.2507V8.70833H10.8757Z" fill="white"/>
</svg>
